<svg height="338" viewBox="0 0 382 338" width="382" xmlns="http://www.w3.org/2000/svg">
<rect fill="white" height="100%" width="100%"/>
<path d="M271,1 L271,5 L8,6 L7,69 L9,72 L18,76 L19,78 L20,77 L28,82 L40,86 L40,90 L32,100 L23,121 L24,122 L22,125 L20,137 L20,154 L18,164 L24,161 L25,159 L26,160 L27,158 L31,157 L38,151 L40,151 L44,146 L46,146 L51,141 L52,137 L55,137 L55,178 L57,188 L62,199 L61,200 L68,214 L69,221 L73,220 L76,211 L79,207 L79,204 L97,172 L103,151 L105,151 L105,154 L114,170 L121,177 L128,181 L128,183 L125,184 L124,187 L116,187 L115,189 L109,191 L104,196 L102,196 L94,204 L94,206 L91,208 L91,210 L88,212 L86,216 L86,223 L88,229 L82,231 L81,236 L76,243 L77,244 L74,248 L71,257 L68,275 L64,288 L64,336" fill="none" stroke="rgb(233, 218, 202)" stroke-width="1"/>
<path d="M290,36 L292,36 L288,38 L293,37 L287,39 L294,38 L286,40 L295,39 L285,41 L296,40 L284,42 L297,41 L283,43 L298,42 L282,44 L298,43 L281,45 L299,44 L280,46 L300,45 L279,47 L301,46 L278,48 L302,47 L277,49 L303,48 L276,50 L304,49 L275,51 L305,50 L274,52 L306,51 L273,53 L307,52 L272,53 L308,53 L271,54 L309,54 L270,55 L310,55 L269,56 L311,56 L268,57 L312,57 L267,57 L313,58 L266,58 L314,59 L265,59 L315,60 L264,60 L316,61 L263,60 L317,62 L262,61 L318,62 L261,62 L319,63 L260,63 L320,64 L259,64 L321,64 L258,64 L322,65 L257,65 L323,66 L256,65 L324,66 L255,66 L325,67 L254,67 L326,67 L253,67 L327,68 L252,68 L328,69 L251,68 L329,69 L250,69 L330,70 L249,70 L331,70 L248,70 L332,71 L247,70 L333,71 L246,71 L334,72 L245,72 L335,73 L244,72 L336,73 L243,73 L337,74 L242,73 L338,74 L241,74 L339,74 L240,74 L340,75 L239,75 L341,75 L238,75 L342,76 L237,76 L343,76 L236,76 L344,77 L235,77 L345,77 L234,77 L346,77 L233,78 L347,78 L232,78 L348,78 L231,79 L349,78 L231,80 L350,79 L232,81 L351,79 L234,82 L352,79 L235,82 L353,80 L236,83 L354,80 L237,83 L355,81 L238,84 L357,81 L240,85 L358,81 L241,86 L359,81 L242,86 L360,82 L243,87 L361,82 L244,88 L362,82 L245,89 L363,82 L246,89 L364,83 L247,90 L365,83 L248,91 L366,83 L249,92 L367,83 L250,93 L368,84 L251,94 L369,84 L252,95 L370,84 L253,96 L371,84 L254,97 L372,84 L255,98 L373,85 L256,98 L374,85 L257,98 L375,85 L258,98 L376,85 L259,98 L377,85 L260,98 L380,86 L262,96 L265,90 L277,78 L292,73 L305,73 L316,75 L342,85 L344,87 L344,90 L339,92 L330,102 L321,106 L319,110 L332,117 L341,126 L344,134 L346,135 L349,141 L351,150 L348,150 L344,146 L336,143 L309,142 L310,170 L304,187 L304,194 L302,196 L298,193 L298,191 L286,177 L281,164 L281,157 L278,156 L276,161 L274,162 L274,167 L279,178 L285,203 L285,237 L280,254 L280,259 L282,259 L288,265 L291,272 L291,287 L285,302 L271,316 L257,324 L251,325 L245,336" fill="none" stroke="rgb(233, 218, 202)" stroke-width="1"/>
<path d="M192,156 L194,156 L191,158 L195,156 L192,159 L194,159" fill="none" stroke="rgb(233, 218, 202)" stroke-width="1"/>
<path d="M207,156 L209,156 L207,158 L210,156 L207,159 L211,156 L209,159 L211,159" fill="none" stroke="rgb(233, 218, 202)" stroke-width="1"/>
<path d="M218,157 L220,157 L218,159 L221,157 L218,160 L222,157 L220,160 L222,160" fill="none" stroke="rgb(233, 218, 202)" stroke-width="1"/>
<path d="M245,167 L247,167 L245,169 L248,168 L245,170 L249,169 L246,171 L250,170 L246,172 L251,172 L247,173 L252,173 L248,174 L253,174 L249,175 L254,176 L250,177 L254,177 L251,178 L254,178 L251,179 L254,179 L252,180 L256,181 L253,182 L257,181 L254,183 L258,183 L254,184 L258,184 L254,185 L258,185 L255,186 L258,188 L257,189 L259,187 L257,190 L260,188 L257,191 L261,190 L258,193 L261,192 L260,193 L263,195 L262,196 L264,196 L261,196 L264,198 L260,195 L261,198 L264,199 L261,199 L262,200" fill="none" stroke="rgb(233, 218, 202)" stroke-width="1"/>
<path d="M379,167 L380,172" fill="none" stroke="rgb(233, 218, 202)" stroke-width="1"/>
<path d="M204,168 L203,169 L206,169 L203,170 L206,170 L203,171 L206,171 L205,172" fill="none" stroke="rgb(233, 218, 202)" stroke-width="1"/>
<path d="M131,178 L134,178 L134,181 L131,182" fill="none" stroke="rgb(233, 218, 202)" stroke-width="1"/>
<path d="M380,179 L380,182" fill="none" stroke="rgb(233, 218, 202)" stroke-width="1"/>
<path d="M339,188 L343,188 L335,190 L344,189 L334,190 L345,189 L333,191 L346,189 L332,191 L347,189 L331,192 L348,189 L330,193 L349,190 L329,194 L350,191 L328,195 L351,191 L327,196 L352,192 L326,197 L353,193 L326,198 L354,194 L325,199 L355,195 L325,200 L356,196 L325,201 L357,197 L324,202 L357,198 L324,203 L358,199 L324,204 L358,200 L324,205 L359,201 L324,206 L359,202 L324,207 L359,203 L324,208 L359,204 L324,209 L359,205 L324,210 L359,206 L325,211 L359,207 L325,212 L359,208 L325,213 L359,209 L326,214 L359,210 L326,215 L358,211 L327,216 L358,212 L327,217 L358,213 L328,218 L357,214 L329,219 L357,215 L330,220 L356,216 L331,221 L356,217 L333,221 L355,218 L334,222 L354,219 L335,222 L353,220 L336,223 L352,221 L337,223 L350,221 L338,223 L344,223" fill="none" stroke="rgb(233, 218, 202)" stroke-width="1"/>
<path d="M222,189 L224,189 L222,191 L225,189 L222,192 L225,192" fill="none" stroke="rgb(233, 218, 202)" stroke-width="1"/>
<path d="M127,190 L126,191 L128,192 L125,192 L128,193 L125,193 L128,194 L126,194" fill="none" stroke="rgb(233, 218, 202)" stroke-width="1"/>
<path d="M2,200 L4,200 L2,202 L5,200 L2,203 L5,202 L1,204 L5,203 L1,205 L5,204 L1,206 L5,206 L1,210" fill="none" stroke="rgb(233, 218, 202)" stroke-width="1"/>
<path d="M264,204 L266,205 L264,206 L267,205 L265,207 L268,206" fill="none" stroke="rgb(233, 218, 202)" stroke-width="1"/>
<path d="M266,209 L268,209 L266,211 L269,209 L266,212 L269,211 L267,213 L270,212 L267,214 L271,214 L268,216 L271,215 L268,217 L271,216 L268,218 L271,217 L268,219 L271,218 L268,220 L271,219 L268,221 L271,220 L268,222 L271,221 L268,223 L271,222 L268,224 L271,223 L268,225 L271,225" fill="none" stroke="rgb(233, 218, 202)" stroke-width="1"/>
<path d="M380,215 L377,224 L378,227 L380,227" fill="none" stroke="rgb(233, 218, 202)" stroke-width="1"/>
<path d="M1,223 L3,223 L1,225 L4,223 L4,225" fill="none" stroke="rgb(233, 218, 202)" stroke-width="1"/>
<path d="M267,230 L269,230 L267,232 L270,230 L267,233 L270,232 L267,234 L270,234" fill="none" stroke="rgb(233, 218, 202)" stroke-width="1"/>
<path d="M380,230" fill="none" stroke="rgb(233, 218, 202)" stroke-width="1"/>
<path d="M377,232 L379,232 L377,234 L380,232 L377,235 L380,235" fill="none" stroke="rgb(233, 218, 202)" stroke-width="1"/>
<path d="M86,233" fill="none" stroke="rgb(233, 218, 202)" stroke-width="1"/>
<path d="M89,233 L88,234 L91,234 L88,235 L92,235 L88,236 L93,236 L88,237 L93,237 L89,238 L94,238 L90,239 L95,239 L91,240 L96,240 L92,241 L97,241 L93,242 L97,242 L94,243 L96,243" fill="none" stroke="rgb(233, 218, 202)" stroke-width="1"/>
<path d="M251,234 L250,235 L252,235 L249,235 L253,235 L249,237 L253,237 L251,238" fill="none" stroke="rgb(233, 218, 202)" stroke-width="1"/>
<path d="M242,235 L241,236 L244,236 L241,237 L244,237 L241,238 L244,239" fill="none" stroke="rgb(233, 218, 202)" stroke-width="1"/>
<path d="M266,239 L268,239 L266,241 L269,239 L266,242 L269,241 L266,243 L269,242 L266,244 L269,244" fill="none" stroke="rgb(233, 218, 202)" stroke-width="1"/>
<path d="M265,247 L267,248 L265,249 L268,248 L265,250 L268,250 L265,251 L267,251" fill="none" stroke="rgb(233, 218, 202)" stroke-width="1"/>
<path d="M378,251 L380,251 L377,253 L380,253 L377,254 L379,254" fill="none" stroke="rgb(233, 218, 202)" stroke-width="1"/>
<path d="M235,253 L237,253 L235,255 L238,253 L235,256 L238,256" fill="none" stroke="rgb(233, 218, 202)" stroke-width="1"/>
<path d="M264,255 L266,255 L264,257 L267,255 L265,258 L267,257" fill="none" stroke="rgb(233, 218, 202)" stroke-width="1"/>
<path d="M1,256 L9,263 L11,263 L22,274 L22,276 L27,280 L27,282 L35,291 L35,293 L42,301 L42,303 L51,312 L57,323 L56,324 L59,330 L59,336" fill="none" stroke="rgb(233, 218, 202)" stroke-width="1"/>
<path d="M229,265 L228,266 L230,266 L228,267 L231,267 L228,268 L231,268 L228,269 L230,269" fill="none" stroke="rgb(233, 218, 202)" stroke-width="1"/>
<path d="M252,266 L254,266 L252,268 L255,266 L252,269 L255,269" fill="none" stroke="rgb(233, 218, 202)" stroke-width="1"/>
<path d="M208,267 L207,268 L210,268 L207,269 L211,268 L208,270 L210,270" fill="none" stroke="rgb(233, 218, 202)" stroke-width="1"/>
<path d="M377,267 L379,267 L377,269 L380,267 L377,270 L380,269 L377,271 L380,274" fill="none" stroke="rgb(233, 218, 202)" stroke-width="1"/>
<path d="M230,273 L229,274 L231,274 L228,274 L232,274 L228,276 L232,276 L230,277" fill="none" stroke="rgb(233, 218, 202)" stroke-width="1"/>
<path d="M122,277 L121,278 L123,278 L120,278 L124,278 L120,280 L124,280 L122,281" fill="none" stroke="rgb(233, 218, 202)" stroke-width="1"/>
<path d="M158,295 L157,296 L159,296 L156,296 L160,296 L156,298 L160,298 L158,299" fill="none" stroke="rgb(233, 218, 202)" stroke-width="1"/>
<path d="M377,313 L379,313 L377,315 L380,313 L377,316 L380,315 L377,317 L380,316 L377,318 L380,317 L377,319 L380,319" fill="none" stroke="rgb(233, 218, 202)" stroke-width="1"/>
<path d="M190,326 L189,327 L192,327 L188,328 L193,328 L188,329 L193,329 L189,330 L192,330 L191,331" fill="none" stroke="rgb(233, 218, 202)" stroke-width="1"/>
<path d="M376,326 L378,326 L376,328 L379,326 L376,329 L380,328 L376,331 L380,330 L376,332 L379,331 L376,333 L379,333 L375,335 L379,334 L375,336 L379,336" fill="none" stroke="rgb(233, 218, 202)" stroke-width="1"/>
<path d="M192,158 L201,158 L183,160 L205,158 L179,161 L209,158 L175,162 L210,158 L174,162 L211,159 L173,162 L212,159 L172,162 L213,159 L171,163 L214,159 L170,163 L215,159 L169,163 L216,159 L168,164 L217,159 L167,164 L218,159 L166,164 L219,159 L165,165 L220,159 L164,165 L221,159 L163,165 L222,159 L162,166 L223,159 L161,166 L224,160 L160,166 L225,160 L159,167 L226,160 L158,167 L227,160 L157,168 L228,160 L156,168 L229,160 L155,168 L230,160 L154,169 L231,161 L153,169 L232,161 L152,169 L233,162 L151,170 L234,162 L150,170 L235,162 L149,171 L236,163 L148,171 L237,163 L147,172 L238,164 L146,172 L239,165 L145,173 L240,165 L144,174 L241,166 L143,174 L242,167 L142,175 L243,167 L141,175 L244,168 L140,176 L245,169 L139,176 L246,170 L138,177 L247,171 L137,178 L248,172 L136,178 L249,173 L135,179 L250,174 L134,180 L250,175 L133,180 L251,176 L132,181 L252,177 L131,181 L252,178 L130,182 L253,179 L129,182 L253,180 L128,183 L254,181 L127,184 L255,182 L126,184 L255,183 L125,185 L256,184 L125,186 L256,185 L125,187 L256,186 L125,188 L257,187 L125,189 L257,188 L125,190 L258,189 L126,191 L258,190 L127,192 L259,191 L127,193 L259,192 L128,194 L260,193 L128,195 L260,194 L129,196 L260,195 L129,197 L261,196 L129,198 L262,197 L130,199 L262,198 L131,200 L263,199 L131,201 L263,200 L132,202 L263,201 L133,203 L264,202 L134,204 L264,203 L134,205 L265,204 L135,206 L265,205 L136,207 L265,206 L137,208 L266,207 L138,209 L266,208 L138,210 L266,209 L139,211 L267,210 L140,212 L267,211 L141,213 L268,212 L142,214 L268,213 L142,215 L268,214 L143,216 L268,215 L144,217 L268,216 L145,218 L269,217 L146,219 L269,218 L147,220 L269,219 L149,220 L269,220 L150,221 L269,221 L151,222 L269,222 L152,223 L269,223 L153,224 L269,224 L154,224 L269,225 L155,225 L269,226 L156,226 L269,227 L157,226 L268,228 L158,227 L268,229 L159,228 L268,230 L160,228 L268,231 L161,229 L268,232 L162,229 L268,233 L163,230 L268,234 L164,230 L268,235 L165,231 L267,236 L166,231 L267,237 L167,232 L267,238 L168,232 L267,239 L169,232 L267,240 L170,233 L267,241 L171,233 L267,242 L172,234 L267,243 L173,234 L267,244 L174,234 L266,245 L175,234 L266,246 L176,234 L266,247 L177,235 L266,248 L178,235 L266,249 L179,235 L266,250 L180,235 L266,251 L181,236 L266,252 L182,236 L265,253 L183,236 L265,254 L184,236 L265,255 L185,237 L265,256 L186,237 L265,257 L187,237 L265,258 L188,237 L264,259 L189,237 L264,260 L190,237 L264,261 L191,238 L264,262 L192,238 L264,263 L193,238 L263,264 L194,238 L263,265 L195,239 L262,266 L195,241 L262,267 L196,242 L260,267 L196,243 L259,267 L197,244 L258,267 L197,245 L257,267 L197,246 L256,267 L197,247 L255,267 L198,248 L254,267 L198,249 L253,267 L198,250 L253,269 L199,251 L253,270 L199,252 L253,271 L200,253 L253,272 L200,254 L254,273 L200,255 L254,274 L201,256 L253,275 L201,257 L252,275 L202,258 L251,276 L203,259 L250,276 L203,260 L249,277 L204,261 L248,277 L205,262 L247,277 L205,263 L246,277 L206,264 L245,277 L207,265 L244,277 L208,266 L242,276 L210,268 L240,276 L212,271 L238,275 L214,272 L237,274 L215,272 L236,274 L216,272 L235,273 L217,273 L234,272 L218,273 L233,270 L219,274 L233,269 L220,274 L232,268 L221,274 L231,267 L222,274 L229,267 L223,275 L228,268 L224,275 L229,270 L225,275 L229,271 L226,275 L230,272 L227,275 L230,273 L228,275 L230,275" fill="none" stroke="rgb(242, 251, 243)" stroke-width="1"/>
<path d="M214,164 L216,164 L212,166 L218,164 L210,167 L219,164 L209,166 L220,164 L208,168 L222,164 L206,169 L224,164 L204,170 L225,165 L203,171 L226,165 L202,172 L227,166 L201,173 L228,166 L200,174 L229,167 L199,175 L230,168 L198,176 L231,169 L197,177 L231,170 L196,178 L231,171 L196,179 L231,172 L195,180 L231,173 L195,181 L231,174 L195,182 L231,175 L194,183 L231,176 L194,184 L231,177 L194,185 L231,178 L194,186 L231,179 L194,187 L231,180 L194,188 L231,181 L194,189 L231,182 L194,190 L230,183 L194,191 L230,184 L195,192 L229,185 L195,193 L228,186 L195,194 L227,187 L196,195 L227,188 L196,196 L226,189 L197,197 L225,190 L197,198 L225,191 L198,199 L224,192 L199,200 L223,193 L200,201 L221,193 L201,202 L220,194 L205,202 L217,196 L205,200 L216,197 L205,199 L215,197 L205,198 L214,197 L205,197 L213,197 L205,196 L213,195 L205,195 L212,194 L205,194 L212,193 L205,193 L211,192 L206,192 L208,191" fill="none" stroke="rgb(242, 251, 243)" stroke-width="1"/>
<path d="M379,167 L380,172" fill="none" stroke="rgb(242, 251, 243)" stroke-width="1"/>
<path d="M380,179 L380,182" fill="none" stroke="rgb(242, 251, 243)" stroke-width="1"/>
<path d="M2,200 L4,200 L2,202 L5,200 L2,203 L5,202 L1,204 L5,203 L1,205 L5,204 L1,206 L5,206 L1,210" fill="none" stroke="rgb(242, 251, 243)" stroke-width="1"/>
<path d="M380,215 L377,223 L378,227 L380,227" fill="none" stroke="rgb(242, 251, 243)" stroke-width="1"/>
<path d="M2,222 L1,223 L4,223 L1,224 L4,224 L1,225 L4,225 L3,226" fill="none" stroke="rgb(242, 251, 243)" stroke-width="1"/>
<path d="M242,226 L244,226 L241,228 L245,226 L239,229 L246,227 L238,230 L247,228 L237,231 L247,229 L236,231 L248,230 L235,232 L249,231 L234,233 L249,232 L233,234 L250,233 L232,235 L251,234 L232,236 L252,235 L232,237 L253,236 L231,238 L253,237 L231,239 L254,238 L230,240 L254,239 L230,241 L254,240 L230,242 L254,241 L229,243 L253,242 L229,244 L252,243 L228,245 L251,244 L228,246 L250,245 L227,247 L248,246 L227,248 L247,246 L226,249 L246,246 L226,250 L245,247 L226,251 L244,247 L226,252 L243,248 L226,253 L242,248 L226,254 L241,249 L227,255 L240,250 L227,256 L239,251 L228,257 L239,253 L230,257 L238,254 L231,257 L238,255 L234,257" fill="none" stroke="rgb(242, 251, 243)" stroke-width="1"/>
<path d="M84,230 L83,231 L86,231 L82,232 L87,232 L81,233 L88,233 L81,234 L88,234 L81,235 L88,235 L81,236 L89,236 L80,237 L90,237 L79,238 L91,238 L78,239 L92,239 L78,240 L93,240 L78,241 L94,241 L77,242 L95,242 L76,243 L96,243 L76,244 L97,244 L76,245 L98,245 L75,246 L99,246 L75,247 L100,247 L74,248 L101,248 L74,249 L102,249 L74,250 L103,250 L73,251 L104,251 L73,252 L104,252 L72,253 L105,253 L72,254 L106,254 L72,255 L106,255 L72,256 L106,256 L72,257 L107,257 L71,258 L107,258 L71,259 L108,259 L71,260 L108,260 L70,261 L109,261 L70,262 L109,262 L70,263 L110,263 L70,264 L110,264 L69,265 L111,265 L69,266 L112,266 L69,267 L112,267 L68,268 L113,268 L68,269 L113,269 L68,270 L114,270 L68,271 L115,271 L68,272 L115,272 L67,273 L116,273 L67,274 L117,274 L67,275 L118,275 L67,276 L119,276 L67,277 L119,277 L67,278 L120,278 L66,279 L121,279 L66,280 L122,280 L66,281 L123,281 L66,282 L124,282 L65,283 L125,283 L65,284 L126,283 L65,285 L127,284 L65,286 L128,284 L65,287 L129,285 L65,288 L130,286 L64,289 L131,286 L64,290 L132,287 L64,291 L133,287 L64,292 L134,288 L64,293 L135,288 L63,294 L136,289 L63,295 L137,289 L63,296 L138,290 L63,297 L139,290 L63,298 L140,291 L63,299 L141,291 L63,300 L142,292 L63,301 L143,292 L63,302 L144,292 L64,303 L145,293 L64,304 L146,293 L64,305 L147,294 L64,306 L148,294 L64,307 L149,294 L64,308 L150,295 L63,309 L151,295 L63,310 L152,295 L63,311 L153,295 L63,312 L154,296 L63,313 L155,296 L62,314 L156,297 L62,315 L157,297 L62,316 L158,298 L62,317 L159,299 L62,318 L159,300 L62,319 L159,301 L63,320 L160,302 L63,321 L160,303 L63,322 L160,304 L63,323 L160,305 L63,324 L160,306 L63,325 L160,307 L64,326 L160,308 L64,327 L160,309 L64,328 L160,310 L64,329 L161,311 L64,330 L161,312 L64,331 L162,313 L64,332 L162,314 L64,333 L163,315 L64,334 L164,316 L64,335 L165,317 L64,336 L165,318 L175,324 L189,328 L191,336" fill="none" stroke="rgb(242, 251, 243)" stroke-width="1"/>
<path d="M380,230" fill="none" stroke="rgb(242, 251, 243)" stroke-width="1"/>
<path d="M377,232 L379,232 L377,234 L380,232 L377,235 L380,235" fill="none" stroke="rgb(242, 251, 243)" stroke-width="1"/>
<path d="M377,251 L379,251 L377,253 L380,251 L377,254 L380,254" fill="none" stroke="rgb(242, 251, 243)" stroke-width="1"/>
<path d="M377,267 L379,267 L377,269 L380,267 L377,270 L380,269 L377,271 L380,274" fill="none" stroke="rgb(242, 251, 243)" stroke-width="1"/>
<path d="M377,313 L379,313 L377,315 L380,313 L377,316 L380,315 L377,317 L380,316 L377,318 L380,317 L377,319 L380,319" fill="none" stroke="rgb(242, 251, 243)" stroke-width="1"/>
<path d="M376,326 L378,326 L376,328 L379,326 L376,329 L380,328 L376,330 L380,329 L376,332 L380,331 L376,333 L379,333 L375,335 L379,334 L375,336 L379,336" fill="none" stroke="rgb(242, 251, 243)" stroke-width="1"/>
<path d="M59,6 L61,6 L58,8 L62,6 L57,9 L63,6 L57,10 L64,6 L57,11 L65,6 L57,12 L66,6 L58,13 L67,6 L58,14 L68,6 L58,15 L69,6 L58,16 L70,6 L58,17 L71,6 L58,18 L72,6 L58,19 L73,6 L58,20 L74,6 L57,21 L75,6 L55,21 L76,6 L54,21 L77,6 L53,21 L78,6 L52,21 L79,6 L51,21 L80,6 L50,21 L81,6 L49,21 L82,6 L48,21 L83,6 L47,21 L84,6 L46,21 L85,6 L45,21 L86,6 L44,21 L87,6 L43,21 L88,6 L42,21 L89,6 L41,21 L90,6 L40,21 L91,6 L36,21 L95,6 L35,22 L99,6 L31,23 L100,6 L30,23 L105,6 L25,24 L109,6 L21,25 L113,6 L17,26 L115,6 L15,27 L116,6 L14,26 L119,6 L11,28 L120,6 L10,29 L121,6 L9,30 L122,6 L9,31 L123,6 L9,32 L124,6 L9,33 L125,6 L9,34 L126,6 L9,35 L127,6 L9,36 L128,6 L8,37 L129,6 L8,38 L130,6 L8,39 L131,6 L8,40 L132,6 L8,41 L133,6 L8,42 L134,6 L9,43 L135,6 L9,44 L136,6 L9,45 L137,6 L9,46 L138,6 L10,47 L139,6 L10,48 L140,6 L12,49 L142,6 L14,50 L144,6 L16,51 L147,6 L19,52 L148,6 L20,53 L149,6 L21,53 L152,6 L24,54 L153,6 L25,55 L155,6 L27,56 L158,6 L30,57 L159,6 L31,57 L162,6 L34,58 L163,6 L35,58 L164,6 L36,58 L165,7 L37,59 L167,7 L39,60 L170,7 L42,61 L172,7 L44,62 L173,7 L45,61 L174,7 L46,62 L175,7 L47,62 L176,6 L48,62 L177,6 L49,63 L178,6 L50,63 L181,6 L53,64 L181,8 L54,64 L181,9 L55,64 L180,10 L56,65 L179,11 L57,65 L178,12 L58,65 L177,13 L59,65 L177,14 L60,65 L176,15 L61,66 L175,16 L62,66 L174,17 L63,66 L173,18 L64,66 L172,19 L65,67 L171,20 L66,67 L171,21 L67,67 L170,22 L67,69 L169,23 L67,70 L170,24 L67,71 L171,25 L66,72 L172,25 L66,73 L173,25 L65,74 L174,25 L64,75 L175,24 L64,76 L176,24 L63,77 L177,24 L63,78 L178,24 L62,79 L179,24 L61,80 L180,24 L60,81 L181,24 L59,82 L182,24 L58,83 L183,23 L58,84 L184,23 L57,85 L185,23 L57,86 L186,23 L57,87 L187,23 L56,88 L188,23 L56,89 L189,23 L55,90 L190,23 L55,91 L191,23 L54,92 L192,23 L54,93 L193,23 L53,94 L194,23 L53,95 L195,23 L53,96 L196,23 L52,97 L197,23 L52,98 L198,23 L51,99 L199,23 L51,100 L200,23 L51,101 L201,23 L51,102 L202,23 L50,103 L203,23 L50,104 L204,23 L50,105 L205,23 L50,106 L206,23 L52,106 L207,23 L53,106 L208,23 L54,106 L209,23 L55,106 L210,23 L56,105 L211,23 L57,105 L212,23 L58,105 L213,23 L59,104 L214,23 L60,104 L215,24 L61,104 L216,24 L62,104 L217,24 L63,103 L218,24 L64,102 L219,24 L65,102 L220,24 L66,102 L221,25 L67,101 L222,25 L68,101 L223,25 L69,101 L224,25 L70,100 L225,26 L71,100 L226,26 L72,99 L227,26 L73,99 L228,26 L74,98 L229,27 L75,97 L230,27 L76,95 L233,27 L79,95 L234,28 L79,97 L235,28 L78,98 L236,28 L78,99 L237,29 L77,100 L238,29 L77,101 L239,30 L77,102 L240,30 L76,103 L241,31 L76,104 L242,31 L76,105 L242,33 L76,106 L242,34 L76,107 L242,35 L75,108 L241,36 L75,109 L241,37 L75,110 L240,38 L75,111 L240,39 L75,112 L239,40 L74,113 L238,41 L74,114 L238,42 L74,115 L237,43 L74,116 L236,44 L74,117 L235,45 L74,118 L233,46 L74,119 L232,47 L74,120 L232,48 L74,121 L231,49 L74,122 L230,50 L74,123 L229,51 L74,124 L228,52 L74,125 L227,53 L74,126 L226,54 L75,127 L225,55 L75,128 L224,56 L75,129 L222,57 L75,131 L221,58 L76,132 L220,59 L76,133 L219,60 L76,134 L217,61 L76,136 L216,63 L77,137 L215,62 L77,138 L214,63 L77,139 L213,64 L78,140 L212,64 L78,141 L211,65 L79,142 L210,65 L80,142 L208,66 L83,141 L206,67 L84,139 L204,69 L86,139 L203,69 L87,138 L201,70 L89,137 L200,70 L90,136 L198,71 L92,135 L197,71 L93,133 L196,71 L95,133 L194,72 L96,132 L193,73 L97,131 L192,73 L98,130 L191,73 L99,129 L190,74 L100,127 L189,74 L101,125 L187,74 L102,124 L186,75 L103,123 L186,77 L103,122 L187,78 L104,121 L188,79 L105,120 L190,79 L105,119 L191,80 L106,118 L192,81 L107,117 L193,82 L107,116 L194,83 L108,115 L195,85 L108,114 L196,85 L109,113 L197,86 L111,113 L197,88 L112,114 L199,89 L112,115 L199,90 L113,116 L199,91 L114,117 L201,92 L114,118 L201,93 L114,119 L202,94 L115,120 L202,95 L115,121 L203,96 L116,122 L203,97 L116,123 L204,98 L117,124 L204,99 L118,125 L205,100 L118,126 L205,101 L119,127 L206,102 L119,128 L206,103 L121,129 L207,104 L121,130 L207,105 L121,131 L207,106 L122,132 L207,107 L123,133 L207,108 L124,134 L207,109 L124,135 L207,110 L125,136 L205,110 L126,137 L204,110 L126,138 L203,110 L127,139 L202,110 L128,140 L201,110 L129,141 L200,110 L130,142 L199,110 L130,143 L198,110 L131,144 L197,110 L132,145 L196,111 L133,146 L195,111 L134,147 L194,111 L135,148 L193,111 L136,149 L192,111 L137,150 L191,111 L138,151 L190,111 L139,152 L189,111 L140,153 L188,111 L141,154 L187,111 L142,155 L186,111 L145,155 L184,111 L146,153 L183,111 L147,152 L182,111 L147,151 L181,111 L148,150 L180,111 L148,149 L179,111 L149,148 L178,111 L149,147 L177,111 L150,146 L176,111 L150,145 L175,110 L151,144 L174,110 L151,143 L173,110 L152,142 L172,110 L152,141 L171,110 L153,140 L170,109 L153,139 L169,109 L154,138 L168,109 L154,137 L167,108 L154,136 L166,108 L155,135 L165,108 L155,134 L164,108 L155,133 L163,107 L155,132 L162,107 L156,131 L161,107 L156,130 L160,106 L156,129 L159,106 L157,128 L157,106 L157,126 L157,108 L157,125 L157,109 L157,124 L157,110 L158,117" fill="none" stroke="rgb(129, 155, 101)" stroke-width="1"/>
<path d="M290,74 L296,74 L284,76 L298,74 L282,77 L300,74 L280,78 L302,74 L278,79 L304,74 L276,80 L305,74 L275,81 L306,74 L274,82 L307,74 L273,83 L308,75 L272,84 L309,75 L271,85 L310,75 L270,86 L311,75 L269,87 L312,75 L268,88 L313,75 L267,89 L314,76 L266,90 L315,76 L266,91 L316,76 L265,92 L317,76 L264,93 L318,77 L264,94 L319,77 L264,95 L320,77 L263,96 L321,77 L263,97 L322,77 L262,98 L323,78 L261,99 L324,78 L260,99 L325,78 L259,99 L326,79 L258,99 L327,79 L257,100 L328,80 L256,100 L329,80 L255,100 L330,80 L254,100 L331,81 L253,100 L332,81 L252,100 L333,81 L251,101 L334,82 L250,101 L335,82 L249,101 L336,83 L248,102 L337,83 L247,102 L338,84 L246,102 L339,84 L245,103 L340,85 L244,103 L341,85 L243,104 L342,86 L242,105 L343,87 L241,105 L343,88 L240,106 L343,89 L239,107 L343,90 L238,107 L341,91 L237,108 L340,92 L236,109 L339,93 L235,110 L338,94 L234,111 L337,95 L233,112 L336,96 L232,114 L335,97 L231,115 L334,98 L231,116 L333,99 L230,117 L332,100 L229,118 L331,100 L229,119 L330,101 L229,120 L329,102 L228,121 L328,102 L227,122 L327,103 L227,123 L326,104 L227,124 L325,104 L226,125 L324,105 L226,126 L323,106 L225,127 L322,106 L225,128 L321,107 L225,129 L320,107 L224,130 L319,107 L224,131 L318,108 L224,132 L317,108 L224,133 L318,110 L224,134 L318,111 L226,134 L320,111 L227,134 L321,112 L228,134 L322,112 L229,134 L323,112 L230,134 L324,113 L231,133 L325,114 L232,133 L326,114 L233,133 L327,115 L234,133 L328,116 L235,132 L329,116 L236,132 L330,117 L237,132 L331,117 L238,132 L332,118 L239,132 L334,119 L241,131 L335,120 L242,131 L336,121 L243,131 L337,122 L244,131 L338,123 L245,131 L339,124 L246,131 L339,126 L247,131 L341,127 L248,131 L341,128 L249,130 L343,130 L251,130 L344,132 L253,130 L345,134 L255,130 L345,135 L256,130 L347,137 L258,130 L347,138 L258,132 L348,140 L258,134 L349,141 L258,135 L349,142 L257,136 L350,144 L257,138 L350,145 L257,139 L351,147 L256,141 L351,148 L256,142 L351,149 L256,143 L350,150 L256,144 L348,149 L256,145 L347,149 L255,146 L346,148 L255,147 L345,147 L255,148 L344,146 L255,149 L343,146 L256,150 L342,145 L256,151 L341,145 L256,152 L340,144 L256,153 L339,144 L256,154 L338,144 L256,155 L337,144 L256,156 L336,143 L256,157 L335,143 L256,158 L334,143 L257,159 L333,143 L257,160 L332,143 L257,161 L331,142 L257,162 L330,142 L257,163 L329,142 L258,164 L328,142 L258,165 L327,142 L258,166 L326,142 L259,167 L325,142 L259,168 L324,142 L260,169 L323,142 L260,170 L322,142 L261,171 L321,142 L262,172 L320,142 L262,173 L319,142 L264,173 L318,142 L265,174 L317,142 L266,174 L316,142 L267,173 L315,142 L268,173 L314,141 L269,172 L313,141 L269,170 L312,142 L270,169 L311,142 L271,167 L309,142 L272,166 L309,144 L273,164 L309,146 L274,162 L309,148 L275,160 L310,150 L276,159 L310,151 L277,157 L310,153 L278,156 L310,154 L280,156 L310,155 L281,157 L310,156 L281,159 L311,157 L281,160 L311,158 L281,161 L311,159 L281,162 L311,160 L281,163 L311,161 L281,164 L311,162 L282,165 L311,163 L282,166 L311,164 L282,167 L311,165 L283,168 L310,166 L283,169 L310,167 L284,170 L310,168 L284,171 L310,169 L284,172 L310,170 L285,173 L309,171 L285,174 L309,172 L286,175 L309,173 L286,176 L309,174 L287,177 L308,175 L288,178 L308,176 L288,179 L308,177 L288,180 L308,178 L289,181 L307,179 L290,182 L307,180 L291,183 L307,181 L291,184 L306,182 L292,185 L306,183 L293,186 L306,184 L294,187 L305,185 L295,188 L305,186 L296,189 L305,187 L297,190 L304,188 L297,191 L304,189 L298,192 L304,190 L299,193 L304,191 L299,194 L303,192 L300,195 L303,193 L303,195" fill="none" stroke="rgb(129, 155, 101)" stroke-width="1"/>
<path d="M56,18 L55,19 L57,19 L54,20 L58,20 L54,21 L58,21 L55,22 L57,22" fill="none" stroke="rgb(84, 112, 103)" stroke-width="1"/>
<path d="M41,19 L40,20 L43,20 L40,21 L44,20 L41,22 L43,22" fill="none" stroke="rgb(84, 112, 103)" stroke-width="1"/>
<path d="M226,24 L225,25 L228,25 L225,26 L229,25 L226,27 L228,27" fill="none" stroke="rgb(84, 112, 103)" stroke-width="1"/>
<path d="M186,74 L185,75 L188,75 L185,76 L188,76 L185,77 L188,77 L187,78" fill="none" stroke="rgb(84, 112, 103)" stroke-width="1"/>
<path d="M252,96 L254,96 L252,98 L255,96 L252,99 L255,99" fill="none" stroke="rgb(84, 112, 103)" stroke-width="1"/>
<path d="M53,105 L55,105 L53,107 L56,105 L53,108 L56,107 L52,109 L56,108 L48,109 L48,106 L51,106" fill="none" stroke="rgb(84, 112, 103)" stroke-width="1"/>
<path d="M223,133 L222,134 L225,134 L222,135 L226,134 L223,136 L225,136" fill="none" stroke="rgb(84, 112, 103)" stroke-width="1"/>
<path d="M99,198 L98,199 L101,199 L98,200 L102,199 L99,201 L101,201" fill="none" stroke="rgb(84, 112, 103)" stroke-width="1"/>
<path d="M13,6 L18,6 L8,8 L19,6 L8,9 L20,6 L8,10 L21,6 L7,11 L22,6 L7,12 L23,6 L7,13 L24,6 L7,14 L25,6 L7,15 L26,6 L7,16 L27,6 L7,17 L28,6 L7,18 L29,6 L7,19 L30,6 L7,20 L31,6 L7,21 L32,6 L7,22 L33,6 L7,23 L34,6 L8,24 L35,6 L8,25 L36,6 L8,26 L37,6 L8,27 L38,6 L10,27 L39,6 L11,27 L40,6 L12,27 L41,6 L13,26 L42,6 L14,26 L43,6 L15,25 L44,6 L16,25 L45,6 L17,25 L46,6 L18,24 L47,6 L19,24 L48,6 L20,24 L49,6 L21,23 L50,6 L22,23 L51,6 L23,23 L52,6 L24,23 L53,6 L25,22 L54,7 L26,22 L55,7 L27,22 L56,8 L28,22 L56,10 L29,22 L56,11 L30,21 L57,12 L31,21 L57,13 L32,21 L57,14 L33,21 L57,15 L34,21 L57,16 L35,20 L57,17 L36,20 L57,19 L47,19" fill="none" stroke="rgb(18, 67, 106)" stroke-width="1"/>
<path d="M183,6 L185,6 L182,8 L186,6 L181,9 L187,6 L180,10 L188,6 L180,11 L189,6 L179,12 L190,6 L179,13 L191,6 L177,14 L192,6 L176,15 L193,6 L176,16 L194,6 L175,17 L195,6 L174,18 L196,6 L173,19 L197,6 L173,20 L198,6 L172,21 L199,6 L171,22 L200,6 L171,23 L201,6 L171,24 L202,6 L173,24 L203,6 L174,23 L204,6 L175,23 L205,6 L176,23 L206,6 L177,23 L207,6 L178,23 L208,6 L179,23 L209,6 L180,23 L210,6 L181,23 L211,6 L182,23 L212,6 L183,23 L213,6 L184,22 L214,6 L185,22 L215,6 L186,22 L216,6 L187,22 L217,6 L188,22 L218,6 L189,22 L219,6 L190,22 L220,6 L191,22 L221,6 L192,22 L222,6 L193,22 L223,6 L194,22 L224,6 L195,22 L225,6 L196,21 L227,6 L198,22 L228,6 L199,22 L229,6 L200,22 L230,6 L201,22 L231,6 L202,22 L232,6 L203,22 L233,6 L204,22 L234,6 L205,22 L235,6 L206,22 L236,6 L207,22 L237,6 L208,22 L238,6 L209,22 L239,6 L210,22 L240,6 L211,22 L243,6 L214,23 L244,6 L215,23 L245,6 L216,23 L246,6 L217,23 L249,6 L220,24 L250,6 L221,24 L251,6 L222,24 L252,6 L223,24 L255,6 L226,24 L256,6 L227,25 L257,6 L228,25 L258,6 L229,25 L259,6 L230,25 L261,6 L232,26 L263,6 L234,27 L264,6 L235,27 L265,6 L236,27 L267,6 L238,28 L269,6 L240,29 L271,6 L242,30 L272,6 L243,30 L272,8 L243,32 L273,9 L243,33 L274,10 L243,34 L274,11 L242,35 L274,12 L242,36 L275,13 L241,37 L275,14 L241,38 L276,15 L240,39 L276,16 L240,40 L277,17 L239,41 L278,18 L238,42 L278,19 L237,43 L279,20 L236,44 L280,21 L235,45 L281,22 L234,46 L281,23 L234,47 L282,24 L233,48 L283,25 L232,49 L284,26 L231,50 L285,27 L230,51 L286,28 L229,52 L287,29 L228,53 L288,30 L227,54 L289,31 L226,55 L290,32 L225,56 L290,33 L224,57 L290,34 L223,58 L290,35 L221,59 L287,37 L219,61 L286,39 L218,62 L285,40 L217,62 L283,42 L215,63 L281,44 L213,64 L279,44 L212,65 L279,46 L211,65 L277,48 L209,66 L276,49 L208,68 L274,50 L207,67 L273,50 L206,68 L272,52 L205,68 L271,52 L204,69 L270,54 L203,69 L268,55 L200,71 L266,56 L199,71 L265,57 L198,71 L264,57 L197,72 L263,59 L196,72 L262,60 L194,73 L260,61 L193,73 L259,62 L191,74 L257,63 L190,74 L256,64 L188,75 L254,64 L188,77 L253,65 L188,78 L252,66 L189,79 L251,66 L191,79 L250,67 L192,80 L249,68 L193,81 L248,68 L194,82 L247,69 L195,83 L246,69 L196,84 L245,70 L197,85 L244,70 L197,87 L243,71 L198,88 L242,71 L199,89 L241,72 L199,90 L240,72 L200,91 L239,73 L201,92 L238,73 L201,93 L237,74 L202,94 L236,74 L202,95 L235,75 L203,96 L234,75 L203,97 L233,76 L204,98 L232,76 L204,99 L231,77 L205,100 L230,77 L205,101 L229,78 L206,102 L229,80 L206,103 L229,81 L207,104 L231,82 L207,105 L232,82 L207,106 L233,83 L208,107 L234,83 L208,108 L235,83 L208,109 L236,84 L208,110 L237,84 L206,110 L238,86 L205,110 L239,86 L204,111 L240,86 L203,111 L241,87 L202,111 L242,88 L201,111 L243,88 L200,111 L244,89 L199,111 L245,90 L198,111 L246,90 L197,111 L247,91 L196,112 L248,92 L195,112 L249,93 L194,112 L250,94 L193,112 L251,95 L192,112 L252,96 L191,112 L252,98 L190,112 L252,99 L187,112 L248,101 L185,112 L246,102 L182,112 L243,103 L180,112 L241,104 L179,112 L240,105 L178,112 L239,106 L177,111 L238,107 L176,111 L237,108 L175,111 L236,109 L174,111 L235,110 L173,111 L234,111 L172,110 L234,112 L171,110 L233,113 L170,110 L232,114 L169,110 L231,115 L168,109 L231,116 L167,109 L230,117 L166,108 L230,118 L165,108 L229,119 L164,108 L229,120 L163,108 L228,121 L162,107 L228,122 L161,107 L227,123 L160,107 L227,124 L159,107 L226,125 L158,107 L226,126 L158,109 L225,127 L158,110 L225,128 L158,111 L224,129 L158,112 L224,130 L158,113 L224,131 L158,114 L223,132 L158,115 L223,133 L158,116 L223,135 L158,118 L225,135 L158,119 L226,135 L158,120 L227,135 L158,121 L228,135 L158,122 L229,134 L158,123 L230,134 L158,124 L231,134 L158,125 L232,134 L157,126 L233,134 L157,127 L234,133 L157,128 L235,133 L157,129 L236,133 L156,130 L237,133 L156,131 L238,133 L156,132 L239,133 L155,133 L240,132 L155,134 L241,132 L155,135 L242,132 L154,136 L243,132 L154,137 L244,132 L153,138 L245,132 L153,139 L246,132 L153,140 L247,132 L152,141 L248,132 L152,142 L249,131 L151,143 L250,131 L151,144 L251,131 L150,145 L252,131 L149,146 L253,131 L149,147 L254,130 L148,148 L255,130 L148,149 L256,130 L147,150 L257,131 L147,151 L257,132 L146,152 L257,133 L146,153 L257,134 L145,154 L257,135 L144,155 L257,136 L143,155 L257,137 L142,155 L257,138 L141,154 L257,139 L140,153 L256,140 L139,152 L256,141 L138,151 L256,142 L137,151 L256,143 L136,150 L256,144 L135,149 L256,145 L134,148 L256,146 L133,147 L255,147 L131,144 L255,149 L130,143 L255,150 L129,142 L253,150 L128,141 L252,150 L127,140 L251,150 L126,139 L250,150 L126,138 L249,150 L125,137 L248,150 L124,136 L246,150 L122,134 L245,147 L121,132 L245,145 L120,130 L244,144 L119,129 L243,143 L119,128 L242,142 L118,127 L241,141 L118,126 L239,141 L117,125 L238,141 L117,124 L237,140 L116,123 L236,140 L116,122 L235,140 L115,121 L234,141 L115,120 L233,141 L114,119 L232,141 L113,118 L231,141 L113,117 L230,141 L112,116 L229,142 L112,114 L227,143 L110,114 L226,143 L109,114 L225,144 L108,115 L224,144 L107,117 L223,145 L107,118 L222,145 L106,119 L221,145 L106,120 L220,145 L105,121 L219,145 L105,122 L218,145 L104,123 L217,145 L104,124 L216,145 L102,124 L215,145 L101,125 L214,145 L101,127 L213,144 L100,128 L212,144 L99,129 L211,143 L98,130 L210,143 L97,131 L209,143 L96,132 L208,143 L95,133 L207,142 L93,134 L206,142 L92,135 L205,142 L91,136 L204,141 L89,137 L202,140 L88,138 L201,139 L85,139 L198,138 L84,140 L197,138 L83,141 L196,137 L82,141 L195,137 L81,143 L194,136 L80,143 L193,136 L79,143 L192,135 L78,143 L191,135 L77,141 L190,134 L77,140 L189,134 L77,139 L188,134 L77,138 L187,134 L76,137 L187,136 L76,136 L187,138 L75,134 L188,139 L75,133 L188,140 L75,132 L188,141 L75,130 L189,143 L75,129 L189,144 L75,128 L189,145 L75,127 L189,146 L75,126 L189,148 L74,124 L190,149 L74,123 L190,150 L74,122 L190,151 L74,121 L190,152 L74,120 L190,153 L74,119 L190,154 L74,118 L190,155 L74,117 L189,156 L74,116 L187,156 L75,115 L186,157 L75,114 L185,157 L75,113 L184,158 L75,112 L183,158 L75,111 L182,158 L75,110 L181,158 L75,109 L180,158 L75,108 L179,159 L75,107 L178,159 L75,106 L177,159 L76,105 L176,159 L76,104 L175,159 L76,103 L174,160 L76,102 L173,160 L77,100 L171,161 L76,99 L170,161 L75,98 L169,162 L74,98 L168,162 L73,98 L167,162 L72,99 L166,162 L71,100 L165,163 L70,100 L164,163 L69,101 L163,163 L67,102 L161,164 L66,102 L160,165 L65,103 L159,165 L63,103 L157,166 L62,103 L156,166 L61,104 L155,166 L60,105 L154,167 L59,105 L153,168 L58,105 L152,168 L57,106 L151,169 L56,106 L150,168 L55,107 L149,169 L54,107 L148,170 L53,108 L147,170 L51,108 L145,171 L50,108 L144,172 L49,107 L143,172 L49,106 L142,173 L49,105 L141,173 L49,104 L140,174 L49,103 L139,174 L50,102 L138,175 L50,101 L137,176 L50,100 L136,176 L51,99 L135,177 L51,98 L134,177 L52,97 L133,178 L52,96 L132,178 L52,95 L131,179 L53,94 L130,179 L53,93 L129,179 L54,92 L128,179 L54,91 L127,179 L54,90 L126,179 L55,89 L125,178 L56,87 L123,178 L56,86 L123,176 L57,85 L122,175 L57,84 L121,174 L58,83 L120,173 L58,82 L119,172 L59,81 L118,171 L59,80 L117,170 L60,79 L116,169 L61,78 L115,168 L61,77 L114,167 L62,76 L114,166 L63,75 L113,165 L63,74 L112,164 L64,73 L112,163 L65,72 L111,162 L65,69 L108,159 L65,68 L108,158 L64,67 L107,157 L62,67 L107,156 L61,66 L106,155 L60,66 L106,154 L59,66 L106,153 L58,66 L106,152 L57,66 L105,151 L55,65 L103,150 L54,65 L102,151 L53,65 L101,152 L52,65 L101,153 L51,64 L101,154 L50,64 L101,155 L49,64 L100,156 L48,64 L100,157 L47,63 L100,158 L46,63 L100,159 L45,63 L100,160 L44,63 L99,161 L43,62 L99,162 L42,62 L99,163 L41,62 L99,164 L40,61 L98,165 L39,60 L98,166 L38,60 L97,167 L37,59 L97,168 L36,59 L97,169 L35,59 L96,170 L34,59 L95,171 L33,59 L95,172 L32,59 L95,173 L31,58 L94,174 L30,57 L94,175 L29,57 L94,176 L28,57 L93,177 L27,56 L92,178 L26,56 L92,179 L25,56 L91,180 L24,55 L91,181 L23,55 L90,182 L22,54 L90,183 L21,54 L89,184 L20,54 L89,185 L19,53 L88,186 L18,53 L88,187 L17,52 L87,188 L16,52 L87,189 L15,51 L86,190 L14,51 L86,191 L13,50 L85,192 L12,50 L84,193 L11,49 L84,194 L10,49 L83,195 L9,49 L83,196 L8,49 L83,197 L7,51 L82,198 L7,52 L82,199 L7,53 L81,200 L7,54 L81,201 L7,55 L80,202 L7,56 L79,203 L7,57 L79,204 L7,58 L78,205 L7,59 L78,206 L7,60 L77,207 L7,61 L77,208 L7,62 L77,209 L7,63 L76,210 L7,64 L76,211 L7,65 L75,212 L7,66 L75,213 L8,67 L74,214 L8,68 L74,215 L8,69 L73,216 L8,70 L73,217 L10,70 L72,218 L11,71 L72,219 L12,71 L69,219 L14,73 L69,217 L15,73 L68,216 L16,74 L68,215 L17,75 L68,214 L18,75 L68,213 L19,76 L68,212 L20,76 L67,211 L21,77 L67,210 L22,78 L66,209 L23,78 L66,208 L24,78 L65,207 L25,79 L65,206 L26,79 L64,205 L27,79 L64,204 L28,79 L63,203 L29,80 L63,202 L30,81 L63,201 L31,81 L62,200 L32,81 L61,199 L33,82 L61,198 L34,82 L61,197 L35,82 L60,196 L36,83 L60,195 L37,83 L60,194 L38,83 L60,193 L39,84 L59,192 L41,84 L59,190 L42,85 L59,189 L42,87 L58,188 L42,88 L58,187 L42,89 L58,186 L41,90 L58,185 L41,91 L57,184 L40,92 L57,183 L39,93 L57,182 L39,94 L56,181 L38,95 L56,180 L37,96 L56,179 L36,97 L56,178 L36,98 L56,177 L35,99 L55,176 L34,100 L55,175 L33,101 L55,174 L33,102 L55,173 L32,103 L55,172 L32,104 L55,171 L31,105 L55,170 L31,106 L55,169 L30,107 L55,168 L29,108 L55,167 L29,109 L55,166 L28,110 L55,165 L28,111 L55,164 L27,112 L55,163 L27,113 L55,162 L27,114 L55,161 L26,115 L55,160 L26,116 L55,159 L26,117 L55,158 L26,118 L55,157 L25,119 L55,156 L25,120 L55,155 L24,121 L54,154 L24,122 L54,153 L23,123 L54,152 L23,124 L54,151 L23,125 L55,150 L23,126 L55,149 L23,127 L55,148 L22,128 L55,147 L22,129 L55,146 L22,130 L55,145 L22,131 L55,144 L22,132 L55,143 L22,134 L56,141 L21,135 L56,140 L21,136 L56,139 L21,137 L56,138 L21,138 L56,136 L21,140 L55,135 L21,141 L53,135 L21,142 L52,136 L20,143 L52,138 L20,144 L51,139 L20,145 L50,140 L20,146 L50,141 L20,147 L49,142 L19,148 L47,142 L19,149 L46,143 L19,150 L45,144 L19,151 L44,145 L19,152 L43,146 L19,153 L42,146 L19,154 L41,147 L20,155 L40,148 L20,156 L39,149 L20,157 L38,150 L21,158 L37,150 L22,158 L36,151 L23,158 L34,152 L25,158 L33,153 L26,158 L32,155 L27,158 L29,156" fill="none" stroke="rgb(18, 67, 106)" stroke-width="1"/>
<path d="M230,141 L233,141 L227,143 L235,141 L225,144 L237,141 L223,145 L238,141 L222,146 L239,141 L221,147 L240,141 L220,148 L241,142 L219,149 L242,143 L218,150 L243,144 L217,151 L244,145 L216,152 L245,146 L216,153 L245,147 L216,154 L245,148 L216,155 L246,149 L216,156 L245,150 L218,157 L245,151 L219,157 L245,152 L220,157 L245,153 L221,157 L245,154 L222,157 L244,155 L223,158 L244,156 L224,158 L244,157 L225,158 L243,158 L226,158 L243,159 L227,158 L242,160 L235,160" fill="none" stroke="rgb(18, 20, 43)" stroke-width="1"/>
<path d="M215,166 L218,166 L212,168 L220,166 L210,169 L222,166 L208,170 L224,166 L206,171 L225,166 L205,172 L226,167 L204,172 L227,167 L203,173 L228,168 L202,174 L229,169 L201,175 L230,170 L200,176 L230,171 L199,177 L230,172 L198,178 L230,173 L197,179 L231,174 L197,180 L231,175 L196,181 L231,176 L196,182 L230,177 L196,183 L230,178 L196,184 L230,179 L195,185 L230,180 L195,186 L229,181 L195,187 L229,182 L195,188 L228,183 L195,189 L228,184 L196,190 L228,185 L196,191 L227,186 L196,192 L226,187 L196,193 L225,188 L197,194 L224,189 L197,195 L223,190 L198,196 L221,191 L199,197 L220,192 L199,198 L220,193 L201,199 L218,193 L202,199 L217,195 L203,199 L216,195 L203,197 L215,195 L203,196 L214,195 L204,195 L213,194 L204,194 L213,192 L204,193 L212,191 L204,192 L211,190 L207,190" fill="none" stroke="rgb(18, 20, 43)" stroke-width="1"/>
<path d="M117,188 L119,188 L115,190 L121,188 L113,191 L122,188 L112,192 L123,189 L111,192 L124,190 L110,193 L125,191 L109,193 L125,192 L108,194 L126,193 L107,195 L126,194 L106,195 L127,195 L105,196 L127,196 L104,197 L128,197 L103,198 L128,198 L102,199 L129,199 L101,200 L129,200 L100,201 L130,201 L99,202 L131,202 L98,203 L131,203 L97,204 L132,204 L96,205 L133,205 L95,206 L133,206 L94,207 L134,207 L93,208 L135,208 L92,209 L136,209 L91,210 L136,210 L90,211 L137,211 L90,212 L138,212 L89,213 L139,213 L89,214 L140,214 L88,215 L141,215 L87,216 L142,216 L87,217 L143,217 L87,218 L144,218 L87,219 L145,219 L86,220 L146,219 L87,221 L147,221 L87,222 L148,222 L87,223 L149,223 L87,224 L150,224 L87,225 L151,224 L88,226 L152,226 L88,227 L153,226 L88,228 L154,226 L89,229 L155,228 L89,230 L156,228 L89,231 L157,228 L90,232 L158,229 L91,233 L159,230 L91,234 L160,231 L92,235 L161,231 L93,236 L162,232 L93,237 L163,232 L94,238 L164,233 L95,239 L165,233 L95,240 L166,234 L96,241 L167,234 L97,242 L168,234 L98,243 L169,235 L99,244 L170,235 L100,245 L171,235 L101,246 L172,235 L101,247 L173,236 L102,248 L174,236 L103,249 L175,237 L104,250 L176,237 L105,251 L177,237 L106,252 L178,237 L106,253 L179,237 L107,254 L180,238 L107,255 L181,238 L108,256 L182,238 L108,257 L183,238 L109,258 L184,238 L110,259 L185,238 L110,260 L186,238 L110,261 L187,239 L111,262 L188,239 L111,263 L189,239 L112,264 L190,239 L112,265 L191,240 L113,266 L192,240 L114,267 L193,241 L114,268 L194,242 L115,269 L194,243 L116,270 L195,244 L116,271 L195,245 L117,272 L196,246 L118,273 L196,247 L119,275 L197,249 L120,276 L197,250 L121,277 L198,251 L122,278 L198,252 L123,279 L199,253 L124,280 L199,254 L126,280 L199,255 L127,282 L200,256 L128,283 L200,257 L129,283 L201,258 L130,284 L201,259 L131,284 L202,260 L132,285 L202,261 L133,285 L203,262 L134,286 L203,263 L135,286 L204,264 L136,287 L204,265 L137,287 L206,266 L138,288 L206,267 L139,288 L207,268 L140,289 L207,269 L141,289 L209,270 L142,290 L209,271 L143,290 L211,272 L144,291 L212,272 L145,291 L213,273 L146,291 L214,274 L147,292 L215,274 L148,292 L217,275 L150,293 L218,275 L151,293 L219,276 L152,293 L220,276 L153,294 L223,277 L156,295 L225,277 L158,296 L226,277 L159,297 L227,278 L160,298 L228,278 L160,300 L230,277 L160,301 L231,277 L160,302 L232,276 L160,303 L233,275 L160,304 L234,275 L160,305 L235,275 L161,306 L236,275 L161,307 L237,275 L161,308 L238,276 L161,309 L239,277 L162,310 L240,277 L162,311 L241,278 L162,312 L242,278 L163,313 L243,278 L164,314 L244,279 L164,315 L245,279 L165,316 L246,279 L166,317 L247,279 L167,318 L248,279 L169,319 L249,279 L170,319 L250,278 L171,320 L251,278 L172,320 L252,278 L173,320 L253,277 L174,321 L254,277 L175,322 L255,276 L176,322 L256,275 L177,322 L256,274 L178,323 L256,273 L179,323 L255,272 L180,323 L255,271 L181,324 L256,270 L182,324 L257,269 L183,324 L258,269 L184,324 L259,269 L185,325 L260,269 L186,325 L261,269 L187,325 L262,268 L188,326 L263,267 L189,326 L264,266 L190,326 L264,265 L191,327 L265,264 L192,327 L265,263 L193,327 L265,262 L194,327 L266,261 L195,328 L266,260 L196,328 L266,259 L197,328 L267,258 L198,328 L267,257 L199,328 L267,256 L200,328 L267,255 L201,328 L269,255 L202,329 L270,255 L203,329 L271,255 L204,329 L272,255 L205,329 L273,256 L206,329 L274,256 L207,329 L275,256 L208,329 L276,257 L209,329 L277,257 L210,329 L278,258 L211,329 L279,258 L212,329 L280,259 L213,329 L281,260 L214,329 L282,261 L215,329 L283,261 L216,329 L284,262 L217,329 L285,263 L218,329 L286,264 L219,329 L287,265 L220,329 L287,267 L221,329 L288,268 L222,329 L288,269 L223,329 L289,270 L224,329 L290,271 L225,329 L290,272 L226,329 L290,273 L227,329 L290,274 L228,329 L291,275 L229,329 L291,276 L230,329 L291,277 L231,329 L291,278 L232,328 L291,279 L233,328 L291,280 L234,328 L291,281 L235,328 L291,282 L236,328 L291,283 L237,328 L290,284 L238,328 L290,285 L239,327 L290,286 L240,327 L290,287 L241,327 L290,288 L242,327 L289,289 L243,327 L289,290 L244,326 L289,291 L245,326 L289,292 L246,326 L288,293 L247,326 L287,294 L248,325 L287,295 L249,325 L287,296 L250,324 L286,297 L251,324 L285,298 L252,324 L285,299 L253,323 L284,300 L254,323 L283,301 L255,323 L283,302 L256,322 L282,303 L258,321 L280,305 L260,320 L278,307 L262,319 L276,309 L269,315" fill="none" stroke="rgb(18, 20, 43)" stroke-width="1"/>
<path d="M242,227 L244,227 L240,229 L245,228 L239,230 L246,229 L238,231 L246,230 L237,232 L247,231 L236,233 L247,232 L235,234 L248,233 L234,235 L249,234 L234,236 L249,235 L233,237 L250,236 L233,238 L251,237 L233,239 L252,238 L232,240 L252,239 L232,241 L252,240 L231,242 L252,241 L231,243 L252,242 L230,244 L251,243 L230,245 L250,244 L229,246 L248,244 L229,247 L247,245 L229,248 L246,245 L228,249 L245,245 L228,250 L244,245 L228,251 L243,246 L228,252 L242,247 L228,253 L241,248 L228,254 L240,249 L228,255 L239,250 L230,255 L238,251 L231,255 L237,252 L232,255 L236,253 L234,255" fill="none" stroke="rgb(18, 20, 43)" stroke-width="1"/>
<path d="M245,233" fill="none" stroke="rgb(18, 20, 43)" stroke-width="1"/>
<path d="M241,235 L243,235 L240,237 L244,236 L240,238 L245,236 L240,239 L245,238 L240,240 L243,240" fill="none" stroke="rgb(18, 20, 43)" stroke-width="1"/>
<path d="M189,136 L191,136 L188,138 L192,137 L189,139 L193,137 L189,140 L194,138 L189,141 L195,138 L190,142 L196,139 L190,143 L197,139 L190,144 L198,139 L190,145 L199,140 L190,146 L200,141 L190,147 L201,141 L191,148 L202,141 L191,149 L203,142 L191,150 L204,142 L191,151 L205,143 L191,152 L206,143 L191,153 L207,143 L191,154 L208,144 L191,155 L209,144 L191,156 L210,144 L192,157 L211,145 L194,157 L212,145 L195,157 L213,146 L196,156 L216,146 L199,156 L218,147 L201,156 L218,149 L202,156 L218,150 L203,156 L217,151 L204,156 L216,152 L205,156 L215,153 L206,156 L215,154 L207,156 L214,155 L208,156 L214,156 L211,157" fill="none" stroke="rgb(208, 126, 113)" stroke-width="1"/>
<path d="M246,151 L248,151 L246,153 L249,151 L245,154 L250,151 L245,155 L251,151 L244,156 L252,151 L244,157 L253,151 L243,158 L254,152 L243,159 L255,153 L243,160 L256,154 L242,161 L256,155 L242,162 L256,156 L242,163 L257,157 L242,164 L257,158 L242,165 L257,159 L243,166 L257,160 L245,167 L257,161 L246,168 L257,162 L247,168 L257,163 L248,170 L258,164 L249,170 L258,165 L250,172 L259,166 L250,173 L259,167 L252,174 L260,168 L252,175 L260,169 L252,176 L261,170 L253,177 L261,171 L253,178 L262,172 L254,179 L262,173 L254,180 L263,174 L255,181 L264,174 L255,182 L265,174 L256,183 L266,174 L256,184 L267,173 L257,185 L268,172 L257,186 L269,171 L258,187 L270,170 L258,188 L271,169 L259,189 L271,168 L259,190 L272,167 L260,191 L273,167 L260,192 L274,167 L261,193 L275,168 L262,194 L276,170 L262,195 L276,171 L262,196 L276,172 L263,197 L277,173 L263,198 L277,174 L264,199 L278,175 L264,201 L278,177 L265,202 L279,178 L265,203 L279,179 L266,204 L279,180 L267,205 L280,181 L266,206 L280,182 L267,207 L280,183 L267,208 L280,184 L268,210 L281,186 L268,211 L281,187 L269,213 L282,189 L269,214 L282,190 L270,216 L283,192 L270,217 L283,193 L270,218 L283,194 L270,221 L284,197 L270,222 L284,198 L270,223 L284,199 L270,224 L284,200 L270,225 L284,201 L270,226 L284,202 L270,227 L284,203 L270,228 L285,204 L270,229 L285,205 L269,230 L285,206 L269,231 L285,207 L269,232 L285,208 L269,233 L285,209 L269,234 L286,210 L269,235 L286,211 L269,236 L286,212 L268,237 L286,213 L268,238 L286,214 L268,239 L286,215 L268,240 L286,216 L268,241 L286,217 L268,242 L286,218 L268,243 L286,219 L268,244 L286,220 L268,245 L286,221 L268,246 L286,222 L268,247 L286,223 L267,248 L286,224 L267,249 L286,225 L267,250 L286,226 L267,251 L286,227 L267,252 L286,228 L267,253 L286,229 L269,253 L286,230 L270,254 L286,231 L271,254 L285,232 L272,255 L285,233 L273,255 L285,234 L274,255 L285,235 L275,255 L285,236 L276,256 L284,237 L277,256 L284,238 L278,256 L284,239 L279,256 L283,242 L282,248" fill="none" stroke="rgb(208, 126, 113)" stroke-width="1"/>
<path d="M242,327 L237,328 L248,328 L236,329 L249,329 L235,329 L248,330 L234,329 L248,331 L233,329 L248,332 L232,329 L247,333 L231,329 L247,334 L230,330 L246,335 L229,330 L246,336 L228,330 L200,329 L193,329 L191,336" fill="none" stroke="rgb(208, 126, 113)" stroke-width="1"/>
<path d="M271,1 L275,14 L280,20 L280,22 L295,37 L298,43 L317,61 L319,61 L329,69 L341,75 L344,75 L355,80 L380,85" fill="none" stroke="rgb(97, 93, 88)" stroke-width="1"/>
<path d="M338,189 L341,189 L335,191 L343,189 L333,192 L345,189 L331,193 L346,190 L330,194 L347,190 L329,195 L348,190 L328,196 L349,191 L327,197 L350,191 L326,198 L351,192 L326,199 L352,193 L325,200 L353,193 L325,201 L354,194 L325,202 L355,195 L325,203 L356,196 L325,204 L357,197 L324,205 L357,198 L324,206 L357,199 L324,207 L358,200 L325,208 L358,201 L325,209 L358,202 L325,210 L358,203 L325,211 L359,204 L325,212 L359,205 L326,213 L359,206 L326,214 L359,207 L327,215 L359,208 L327,216 L358,209 L328,217 L358,210 L329,218 L358,211 L330,219 L358,212 L331,220 L357,213 L332,221 L357,214 L334,221 L357,215 L335,222 L356,216 L336,222 L355,217 L337,222 L354,218 L338,223 L353,219 L339,223 L352,220 L340,223 L351,221 L341,223 L349,221 L342,223 L345,223" fill="none" stroke="rgb(97, 93, 88)" stroke-width="1"/>
<path d="M1,257 L8,263 L10,263 L23,276 L23,278 L32,288 L36,296 L50,312 L57,325 L59,336" fill="none" stroke="rgb(97, 93, 88)" stroke-width="1"/>
</svg>