<svg height="338" viewBox="0 0 382 338" width="382" xmlns="http://www.w3.org/2000/svg">
<rect fill="white" height="100%" width="100%"/>
<path d="M273,1 L273,5 L270,5 L270,6 L179,6 L178,5 L59,5 L58,6 L45,6 L44,5 L36,5 L35,6 L10,6 L10,7 L8,7 L8,9 L7,10 L7,19 L8,20 L7,20 L8,21 L8,29 L7,30 L7,33 L8,34 L7,34 L8,35 L7,35 L8,36 L7,36 L8,37 L7,37 L8,38 L7,38 L8,39 L7,39 L8,40 L7,40 L8,41 L7,41 L7,45 L8,46 L7,46 L8,47 L7,47 L8,48 L7,48 L7,67 L8,68 L8,69 L9,70 L8,70 L9,71 L10,71 L11,72 L10,72" fill="none" stroke="black" stroke-width="1"/>
<path d="M45,5" fill="none" stroke="black" stroke-width="1"/>
<path d="M181,7 L182,7 L181,8 L180,8 L180,10 L179,10 L179,12 L178,12 L178,13 L177,13 L177,14 L176,14 L176,16 L175,16 L175,17 L174,17 L174,18 L173,18 L173,19 L172,19 L172,20 L171,20 L171,21 L170,21 L170,22 L169,22 L169,23 L170,24 L169,24 L170,25 L173,25 L174,24 L178,24 L179,23 L187,23 L188,22 L207,22 L208,23 L205,23" fill="none" stroke="black" stroke-width="1"/>
<path d="M57,8" fill="none" stroke="black" stroke-width="1"/>
<path d="M274,9 L276,11 L275,11 L276,12 L275,12 L277,14 L276,14 L277,15 L278,15 L278,16 L279,17 L278,17 L279,18 L280,18 L280,19 L281,20 L280,20 L281,21 L282,21 L283,22 L282,22 L283,23 L282,23 L283,24 L284,24 L285,25 L284,25 L285,26 L286,26 L287,27 L286,27 L287,28 L288,28 L289,29 L288,29 L289,30 L290,30" fill="none" stroke="black" stroke-width="1"/>
<path d="M56,10 L57,11 L57,15 L58,16 L58,17 L57,18 L57,19 L56,19 L56,20 L38,20 L37,21 L32,21 L32,22 L27,22 L26,23 L22,23 L22,24 L19,24 L18,25 L16,25 L15,26 L12,26 L11,27" fill="none" stroke="black" stroke-width="1"/>
<path d="M209,23 L219,23 L220,24 L219,24" fill="none" stroke="black" stroke-width="1"/>
<path d="M221,24 L223,24 L224,25 L229,25 L230,26 L229,26" fill="none" stroke="black" stroke-width="1"/>
<path d="M231,26 L232,26 L233,27 L235,27 L236,28 L239,28 L240,29 L239,29" fill="none" stroke="black" stroke-width="1"/>
<path d="M241,29 L242,30 L241,30 L242,31 L243,31 L243,35 L242,35 L242,37 L241,37 L241,38 L240,38 L241,39 L240,39 L240,40 L239,40 L239,41 L238,41 L238,42 L237,42 L238,43 L237,43 L237,44 L236,44 L236,45 L235,45 L235,46 L234,46 L234,47 L233,47 L233,48 L232,48 L232,50 L231,50 L231,51 L230,51 L230,52 L229,52 L229,53 L228,53 L228,54 L226,54 L226,55 L225,55 L226,56 L225,56 L225,57 L223,57 L224,58 L222,58 L222,59 L221,59 L221,60 L220,60 L220,61 L218,61 L218,62 L217,62 L217,63 L215,63 L215,64 L213,64 L213,65 L211,65 L211,66 L209,66 L209,67 L207,67 L207,68 L205,68 L205,69 L203,69 L202,70 L200,70 L199,71 L197,71 L197,72 L195,72 L195,73 L192,73 L192,74 L188,74 L188,75 L187,75 L187,77 L186,77 L187,78 L188,78 L189,79 L188,79" fill="none" stroke="black" stroke-width="1"/>
<path d="M292,34 L293,34 L294,35 L293,35 L294,36 L295,36 L296,37 L295,37 L296,38 L297,38 L298,39 L297,39 L299,41 L298,41 L299,42 L300,42 L301,43 L300,43 L302,45 L301,45 L302,46 L303,46 L304,47 L303,47 L304,48 L305,48 L306,49 L305,49 L306,50 L307,50 L308,51 L307,51 L308,52 L309,52 L310,53 L309,53 L310,54 L311,54 L312,55 L311,55" fill="none" stroke="black" stroke-width="1"/>
<path d="M290,35 L291,35 L290,36 L289,36 L289,37 L288,37 L288,38 L287,38 L287,39 L286,39 L286,40 L285,40 L285,41 L284,41 L284,42 L283,42 L283,43 L282,43 L282,44 L281,44 L281,45 L280,45 L280,46 L279,46 L279,47 L278,47 L278,48 L276,48 L276,49 L275,49 L275,50 L274,50 L274,51 L273,51 L273,52 L272,52 L272,53 L270,53 L271,54 L269,54 L269,55 L268,55 L268,56 L266,56 L267,57 L265,57 L265,58 L264,58 L264,59 L263,59 L263,60 L261,60 L261,61 L260,61 L260,62 L259,62 L259,63 L257,63 L257,64 L256,64 L256,65 L254,65 L254,66 L253,66 L253,67 L251,67 L251,68 L249,68 L249,69 L248,69 L248,70 L246,70 L246,71 L244,71 L244,72 L242,72 L242,73 L240,73 L240,74 L238,74 L238,75 L236,75 L236,76 L234,76 L234,77 L231,77 L231,78 L229,78 L229,79" fill="none" stroke="black" stroke-width="1"/>
<path d="M10,49 L13,49 L14,50 L13,50 L14,51 L17,51 L18,52 L17,52" fill="none" stroke="black" stroke-width="1"/>
<path d="M19,52 L20,53 L19,53" fill="none" stroke="black" stroke-width="1"/>
<path d="M21,53 L22,54 L21,54" fill="none" stroke="black" stroke-width="1"/>
<path d="M23,54 L24,55 L25,55 L26,56 L28,56 L29,57 L30,57 L31,58 L33,58 L34,59 L36,59 L37,60 L39,60 L40,61 L42,61 L43,62 L46,62 L47,63 L50,63 L51,64 L53,64 L54,65 L58,65 L59,66 L62,66 L63,67 L66,67 L66,68 L67,69 L67,70 L66,71 L66,73 L65,73 L65,74 L64,74 L64,75 L63,75 L63,77 L62,77 L62,78 L61,78 L61,80 L60,80 L60,81 L59,81 L59,83 L58,83 L58,85 L57,85 L57,87 L56,87 L56,89 L55,89 L56,90 L55,90 L55,92 L54,92 L54,94 L53,94 L53,96 L52,96 L52,99 L51,99 L51,101 L50,102 L50,104 L49,105 L49,106 L50,107 L51,107 L52,108 L51,108" fill="none" stroke="black" stroke-width="1"/>
<path d="M313,55 L314,56 L313,56 L314,57 L315,57 L316,58 L315,58 L316,59 L318,59 L319,60 L318,60 L319,61 L320,61 L321,62 L320,62" fill="none" stroke="black" stroke-width="1"/>
<path d="M322,62 L323,63 L322,63 L323,64 L324,63 L325,64 L324,64 L325,65 L327,65 L328,66 L327,66 L328,67 L330,67 L331,68 L330,68 L331,69 L334,69 L335,70 L334,70 L335,71 L337,71 L338,72 L337,72" fill="none" stroke="black" stroke-width="1"/>
<path d="M12,72 L13,73 L12,73 L13,74 L15,74 L16,75 L15,75" fill="none" stroke="black" stroke-width="1"/>
<path d="M339,72 L340,73 L339,73" fill="none" stroke="black" stroke-width="1"/>
<path d="M341,73 L342,73 L343,74 L342,74" fill="none" stroke="black" stroke-width="1"/>
<path d="M289,74 L308,74 L309,75 L314,75 L315,76 L318,76 L319,77 L321,77 L322,78 L324,78 L325,79 L327,79 L328,80 L330,80 L331,81 L330,81" fill="none" stroke="black" stroke-width="1"/>
<path d="M344,74 L345,75 L347,75 L348,76 L347,76" fill="none" stroke="black" stroke-width="1"/>
<path d="M17,75 L18,76 L17,76" fill="none" stroke="black" stroke-width="1"/>
<path d="M285,75 L288,75" fill="none" stroke="black" stroke-width="1"/>
<path d="M19,76 L20,77 L19,77" fill="none" stroke="black" stroke-width="1"/>
<path d="M282,76 L284,76" fill="none" stroke="black" stroke-width="1"/>
<path d="M349,76 L350,77 L351,77 L352,78 L354,78 L355,79 L358,79 L359,80 L362,80 L363,81 L366,81 L367,82 L370,82 L371,83 L375,83 L376,84 L380,84" fill="none" stroke="black" stroke-width="1"/>
<path d="M21,77 L22,78 L21,78" fill="none" stroke="black" stroke-width="1"/>
<path d="M280,77 L282,77" fill="none" stroke="black" stroke-width="1"/>
<path d="M23,78 L24,79 L23,79" fill="none" stroke="black" stroke-width="1"/>
<path d="M278,78 L280,78" fill="none" stroke="black" stroke-width="1"/>
<path d="M25,79 L26,80 L25,80" fill="none" stroke="black" stroke-width="1"/>
<path d="M190,79 L191,80 L190,80 L191,81 L192,81 L193,82 L192,82 L193,83 L194,83 L195,84 L194,84 L195,85 L196,85 L197,86 L196,86 L197,87 L198,87 L198,88 L199,89 L198,89 L199,90 L200,90 L200,91 L201,92 L200,92 L201,93 L202,93 L202,94 L203,95 L202,95 L204,97 L203,97 L205,99 L204,99 L205,100 L205,101 L206,102 L205,102 L207,104 L206,104 L207,105 L207,106 L208,107 L208,108 L207,109 L207,110 L206,110 L205,111 L193,111 L193,112 L184,112 L183,111 L174,111 L173,110 L170,110 L169,109 L166,109 L165,108 L163,108 L162,107 L160,107 L159,106 L158,106 L158,108 L157,108 L157,111 L158,112 L158,124 L157,124 L157,128 L156,129 L156,132 L155,133 L155,135 L154,136 L154,138 L153,139 L153,141 L152,141 L152,143 L151,143 L151,144 L150,144 L150,146 L149,146 L149,148 L148,148 L148,150 L147,150 L147,152 L146,152 L146,154 L145,154 L145,155 L141,155 L141,154 L139,152 L138,152 L136,150 L136,149 L128,141 L128,140 L125,137 L125,136 L122,133 L122,132 L120,130 L120,129 L119,128 L119,127 L117,125 L117,124 L116,123 L116,122 L115,121 L115,120 L114,119 L114,118 L113,117 L113,115 L112,114 L111,114 L110,113 L109,113 L109,114 L108,114 L108,116 L107,116 L107,118 L106,118 L107,119 L106,119 L106,120 L105,120 L105,122 L104,122 L104,123 L103,123 L103,124 L102,124 L102,126 L101,126 L101,127 L100,127 L100,128 L99,128 L99,129 L98,129 L98,130 L97,130 L97,131 L96,131 L96,132 L95,132 L95,133 L94,133 L94,134 L93,134 L93,135 L92,135 L92,136 L90,136 L90,137 L89,137 L89,138 L87,138 L87,139 L85,139 L85,140 L83,140 L83,141 L82,141 L82,142 L78,142 L77,141 L77,138 L76,137 L76,133 L75,132 L75,126 L74,125 L74,112 L75,111 L75,107 L76,106 L76,103 L77,102 L77,101 L78,100 L78,99 L79,98 L78,97 L79,97" fill="none" stroke="black" stroke-width="1"/>
<path d="M276,79 L278,79" fill="none" stroke="black" stroke-width="1"/>
<path d="M27,80 L28,81 L27,81" fill="none" stroke="black" stroke-width="1"/>
<path d="M275,80 L276,80 L275,81 L274,81 L274,82 L273,82 L273,83 L272,83 L272,84 L271,84 L271,85 L270,85 L270,86 L269,86 L269,87 L268,87 L268,88 L267,88 L267,90 L266,90 L266,91 L265,91 L265,93 L264,93 L264,95 L263,95 L263,96 L262,96 L262,98 L261,98 L260,99 L257,99 L256,98 L255,98 L254,97 L253,97 L246,90 L245,90 L242,87 L241,87 L239,85 L238,85 L237,84 L236,84 L235,83 L234,83 L233,82 L231,82 L230,81 L229,81" fill="none" stroke="black" stroke-width="1"/>
<path d="M29,81 L30,82 L32,82 L33,83 L35,83 L36,84 L38,84 L39,85 L38,85" fill="none" stroke="black" stroke-width="1"/>
<path d="M231,81" fill="none" stroke="black" stroke-width="1"/>
<path d="M332,81 L333,82 L335,82 L336,83 L335,83" fill="none" stroke="black" stroke-width="1"/>
<path d="M234,82" fill="none" stroke="black" stroke-width="1"/>
<path d="M236,83" fill="none" stroke="black" stroke-width="1"/>
<path d="M337,83 L338,83 L339,84 L338,84 L339,85 L341,85 L342,86 L341,86" fill="none" stroke="black" stroke-width="1"/>
<path d="M238,84" fill="none" stroke="black" stroke-width="1"/>
<path d="M40,85 L41,86 L40,86 L41,87 L41,90 L40,90 L40,92 L39,92 L39,93 L38,93 L38,94 L37,94 L37,95 L36,95 L36,97 L35,97 L35,98 L34,98 L34,100 L33,100 L33,102 L32,102 L32,103 L31,103 L31,105 L30,105 L30,107 L29,107 L29,109 L28,109 L28,111 L27,112 L27,114 L26,115 L26,117 L25,118 L25,120 L24,121 L24,123 L23,124 L23,127 L22,127 L22,131 L21,132 L21,137 L20,138 L20,155 L19,156 L19,159 L18,160 L18,161 L20,163 L22,161 L23,161 L26,158 L27,158 L28,157 L29,157 L31,155 L32,155 L34,153 L35,153 L37,151 L38,151 L42,147 L43,147 L51,139 L51,138 L52,137 L52,136 L53,135 L56,135 L56,140 L55,141 L55,146 L54,146 L54,157 L55,158 L55,175 L56,176 L56,182 L57,183 L57,186 L58,187 L58,190 L59,191 L59,193 L60,194 L60,195 L61,196 L60,196 L61,197 L61,198 L62,199 L62,200 L63,201 L62,201 L64,203 L63,203 L65,205 L64,205 L66,207 L65,207 L66,208 L66,209 L67,210 L67,212 L68,213 L68,218 L69,219 L69,220 L70,221 L69,221" fill="none" stroke="black" stroke-width="1"/>
<path d="M240,85 L241,86" fill="none" stroke="black" stroke-width="1"/>
<path d="M343,86 L343,90 L342,90 L342,91 L340,91 L340,92 L339,92 L339,93 L338,93 L338,94 L337,94 L337,95 L336,95 L336,96 L335,96 L335,97 L334,97 L334,98 L333,98 L333,99 L332,99 L332,100 L330,100 L331,101 L329,101 L329,102 L327,102 L327,103 L326,103 L326,104 L325,104 L325,105 L323,105 L323,106 L321,106 L321,107 L319,107 L319,108 L318,108 L318,109 L319,110 L318,110 L319,111 L320,111 L321,112 L320,112" fill="none" stroke="black" stroke-width="1"/>
<path d="M243,87 L245,89" fill="none" stroke="black" stroke-width="1"/>
<path d="M247,90 L253,96" fill="none" stroke="black" stroke-width="1"/>
<path d="M76,95 L78,95" fill="none" stroke="black" stroke-width="1"/>
<path d="M75,96 L76,96 L75,97 L74,97 L74,98 L73,98 L73,99 L72,99 L72,100 L70,100 L70,101 L68,101 L67,102 L65,102 L64,103 L62,103 L62,104 L60,104 L60,105 L58,105 L57,106 L56,106 L55,107 L53,107" fill="none" stroke="black" stroke-width="1"/>
<path d="M255,97" fill="none" stroke="black" stroke-width="1"/>
<path d="M257,98" fill="none" stroke="black" stroke-width="1"/>
<path d="M76,99" fill="none" stroke="black" stroke-width="1"/>
<path d="M252,99 L252,100 L250,100 L250,101 L248,101 L247,102 L245,102 L245,103 L243,103 L243,104 L241,104 L241,105 L240,105 L240,106 L239,106 L239,107 L238,107 L238,108 L237,108 L237,109 L236,109 L236,110 L235,110 L235,111 L234,111 L234,112 L233,112 L233,113 L232,113 L232,115 L231,115 L231,117 L230,117 L230,118 L229,118 L229,120 L228,120 L228,122 L227,122 L227,124 L226,124 L226,126 L225,127 L225,129 L224,130 L224,131 L223,132 L223,133 L224,134 L223,134 L224,135 L227,135 L228,134 L231,134 L232,133 L237,133 L238,132 L243,132 L244,131 L250,131 L251,130 L255,130 L256,129 L257,130 L258,130 L258,135 L257,136 L257,140 L256,141 L256,147 L255,148 L255,149 L254,149 L254,150 L250,150 L250,151 L249,151 L248,150 L247,150 L247,151 L246,151 L246,152 L245,152 L245,154 L244,155 L244,157 L243,158 L243,159 L242,159 L242,161" fill="none" stroke="black" stroke-width="1"/>
<path d="M254,99" fill="none" stroke="black" stroke-width="1"/>
<path d="M322,112 L323,112 L324,113 L323,113 L324,114 L326,114 L327,115 L326,115" fill="none" stroke="black" stroke-width="1"/>
<path d="M112,113 L113,114" fill="none" stroke="black" stroke-width="1"/>
<path d="M328,115 L329,116 L328,116" fill="none" stroke="black" stroke-width="1"/>
<path d="M330,116 L331,117 L330,117 L331,118 L332,118 L333,119 L332,119" fill="none" stroke="black" stroke-width="1"/>
<path d="M114,117" fill="none" stroke="black" stroke-width="1"/>
<path d="M115,119" fill="none" stroke="black" stroke-width="1"/>
<path d="M334,119 L335,120 L334,120 L335,121 L336,121 L337,122 L336,122 L337,123 L338,123 L339,124 L338,124 L340,126 L339,126 L340,127 L341,127 L341,128 L342,129 L341,129 L342,130 L343,130 L343,131 L344,132 L343,132 L345,134 L344,134 L345,135 L346,135 L346,136 L347,137 L346,137 L348,139 L347,139 L349,141 L348,141 L350,143 L349,143 L350,144 L350,145 L351,146 L351,148 L352,149 L352,150 L351,150 L350,149 L349,150 L348,150 L347,149 L346,149 L343,146 L342,146 L341,145 L340,145 L339,144 L337,144 L336,143 L321,143 L320,142 L314,142 L313,141 L310,141 L310,142 L309,142 L309,148 L310,149 L310,170 L309,170 L309,175 L308,176 L308,178 L307,179 L307,180 L306,181 L306,184 L305,184 L305,187 L304,188 L304,194 L303,194 L304,195 L303,195 L303,196 L300,196 L300,195 L298,193 L298,192 L295,189 L295,188 L291,184 L291,183 L288,180 L288,179 L286,177 L286,176 L285,175 L285,174 L284,173 L284,171 L283,170 L283,168 L282,167 L282,165 L281,164 L281,158 L282,157 L279,154 L278,155 L279,156 L277,156 L277,158 L276,158 L276,160 L275,160 L275,162 L274,163 L274,167 L275,168 L275,169 L276,170 L276,173 L277,174 L277,175 L278,176 L278,178 L279,179 L279,181 L280,182 L280,184 L281,185 L281,188 L282,189 L282,192 L283,193 L283,196 L284,197 L284,202 L285,203 L285,210 L286,211 L286,216 L285,216 L286,217 L285,217 L286,218 L285,218 L286,219 L285,219 L286,220 L285,220 L286,221 L285,221 L286,222 L285,222 L286,223 L286,229 L285,230 L285,236 L284,237 L284,242 L283,243 L283,246 L282,247 L282,249 L281,250 L281,253 L280,254 L280,255" fill="none" stroke="black" stroke-width="1"/>
<path d="M116,121" fill="none" stroke="black" stroke-width="1"/>
<path d="M117,123" fill="none" stroke="black" stroke-width="1"/>
<path d="M118,125 L119,126" fill="none" stroke="black" stroke-width="1"/>
<path d="M120,128" fill="none" stroke="black" stroke-width="1"/>
<path d="M121,130 L122,131" fill="none" stroke="black" stroke-width="1"/>
<path d="M251,131" fill="none" stroke="black" stroke-width="1"/>
<path d="M123,133 L125,135" fill="none" stroke="black" stroke-width="1"/>
<path d="M189,134 L190,135 L192,135 L193,136 L192,136 L193,137 L195,137 L196,138 L198,138 L199,139 L198,139 L199,140 L202,140 L203,141 L202,141" fill="none" stroke="black" stroke-width="1"/>
<path d="M188,135 L188,136 L187,136 L187,137 L188,138 L188,140 L189,141 L188,141 L189,142 L189,145 L190,146 L190,153" fill="none" stroke="black" stroke-width="1"/>
<path d="M53,136" fill="none" stroke="black" stroke-width="1"/>
<path d="M126,137 L128,139" fill="none" stroke="black" stroke-width="1"/>
<path d="M52,138" fill="none" stroke="black" stroke-width="1"/>
<path d="M51,140 L44,147" fill="none" stroke="black" stroke-width="1"/>
<path d="M235,140 L237,140 L238,141 L241,141 L242,142 L241,142 L242,143 L243,143 L244,144 L243,144 L244,145 L245,145 L245,147" fill="none" stroke="black" stroke-width="1"/>
<path d="M78,141" fill="none" stroke="black" stroke-width="1"/>
<path d="M129,141 L136,148" fill="none" stroke="black" stroke-width="1"/>
<path d="M204,141 L205,142 L204,142" fill="none" stroke="black" stroke-width="1"/>
<path d="M230,141 L234,141" fill="none" stroke="black" stroke-width="1"/>
<path d="M314,141" fill="none" stroke="black" stroke-width="1"/>
<path d="M206,142 L207,142 L208,143 L206,143" fill="none" stroke="black" stroke-width="1"/>
<path d="M227,142 L230,142" fill="none" stroke="black" stroke-width="1"/>
<path d="M325,142 L330,142" fill="none" stroke="black" stroke-width="1"/>
<path d="M81,143" fill="none" stroke="black" stroke-width="1"/>
<path d="M225,143 L227,143" fill="none" stroke="black" stroke-width="1"/>
<path d="M209,144 L212,144 L213,145 L216,145 L217,146 L218,146 L218,147" fill="none" stroke="black" stroke-width="1"/>
<path d="M224,144 L225,144 L224,145 L222,145" fill="none" stroke="black" stroke-width="1"/>
<path d="M342,145" fill="none" stroke="black" stroke-width="1"/>
<path d="M220,146 L220,149 L219,149 L219,150 L218,150 L218,151 L217,151 L217,152 L216,152 L216,154" fill="none" stroke="black" stroke-width="1"/>
<path d="M344,146 L346,148" fill="none" stroke="black" stroke-width="1"/>
<path d="M42,148 L39,151" fill="none" stroke="black" stroke-width="1"/>
<path d="M102,149 L102,151 L101,151 L102,152 L101,152 L101,159 L100,160 L100,163 L99,164 L99,166 L98,166 L98,168 L97,168 L98,169 L97,169 L97,171 L96,171 L96,173 L95,174 L95,175 L94,176 L94,178 L93,178 L93,180 L92,180 L92,182 L91,182 L91,183 L90,183 L91,184 L90,184 L90,185 L89,185 L89,187 L88,187 L88,189 L87,189 L87,191 L86,191 L86,193 L85,193 L85,194 L84,194 L84,196 L83,196 L83,198 L82,198 L82,200 L81,200 L81,202 L80,202 L80,204 L79,204 L79,206 L78,206 L78,208 L77,208 L77,211 L76,211 L76,213 L75,213 L75,215 L74,215 L74,218 L73,218 L73,220 L72,220 L72,221 L71,221" fill="none" stroke="black" stroke-width="1"/>
<path d="M104,149 L105,149 L105,151 L106,152 L105,152 L106,153 L106,154 L107,155 L106,155 L107,156 L107,157 L108,158 L107,158 L109,160 L108,160 L109,161 L110,161 L110,162 L111,163 L110,163 L112,165 L111,165 L112,166 L113,166 L113,167 L114,168 L113,168 L114,169 L115,169 L116,170 L115,170 L116,171 L117,171 L118,172 L117,172 L118,173 L119,173 L120,174 L119,174 L120,175 L121,175 L122,176 L121,176 L122,177 L123,177 L124,178 L123,178" fill="none" stroke="black" stroke-width="1"/>
<path d="M348,149" fill="none" stroke="black" stroke-width="1"/>
<path d="M137,150 L138,151 L139,151 L141,153" fill="none" stroke="black" stroke-width="1"/>
<path d="M348,151 L349,152 L350,151" fill="none" stroke="black" stroke-width="1"/>
<path d="M37,152 L36,153" fill="none" stroke="black" stroke-width="1"/>
<path d="M34,154 L33,155" fill="none" stroke="black" stroke-width="1"/>
<path d="M281,155 L282,156" fill="none" stroke="black" stroke-width="1"/>
<path d="M31,156 L30,157" fill="none" stroke="black" stroke-width="1"/>
<path d="M191,156 L192,156 L193,157 L188,157 L187,158 L183,158 L182,159 L178,159 L177,160 L175,160 L174,161 L171,161 L170,162 L168,162 L167,163 L165,163 L164,164 L162,164 L161,165 L160,165 L159,166 L157,166 L156,167 L155,167 L154,168 L152,168 L152,169 L150,169 L150,170 L147,170 L147,171 L145,171 L145,172 L143,172 L143,173 L141,173 L141,174 L139,174 L139,175 L138,175 L138,176 L136,176 L136,177 L134,177 L134,178 L132,178 L132,179 L131,179 L131,180 L127,180 L126,179 L125,179 L125,178" fill="none" stroke="black" stroke-width="1"/>
<path d="M194,157 L219,157 L220,158 L225,158 L226,159 L230,159 L231,160 L234,160 L235,161 L237,161 L238,162 L239,162 L240,163 L241,163 L243,165 L242,165 L243,166 L244,166 L245,167 L244,167 L245,168 L246,167 L246,168 L247,169 L246,169 L247,170 L248,170 L249,171 L248,171 L249,172 L250,172 L251,173 L250,173 L252,175 L251,175 L253,177 L252,177 L253,178 L254,178 L254,179 L255,180 L254,180 L256,182 L255,182 L257,184 L256,184 L258,186 L257,186 L259,188 L258,188 L260,190 L259,190 L261,192 L260,192 L262,194 L261,194 L262,195 L262,196 L263,197 L262,197 L264,199 L263,199 L264,200 L264,201 L265,202 L265,203 L266,204 L266,205 L267,206 L266,206 L267,207 L267,208 L268,209 L268,211 L269,212 L269,214 L270,215 L270,228 L269,229 L269,235 L268,236 L268,246 L267,246 L267,251" fill="none" stroke="black" stroke-width="1"/>
<path d="M28,158" fill="none" stroke="black" stroke-width="1"/>
<path d="M26,159 L24,161" fill="none" stroke="black" stroke-width="1"/>
<path d="M22,162" fill="none" stroke="black" stroke-width="1"/>
<path d="M217,165 L223,165 L224,166 L227,166 L228,167 L227,167 L228,168 L229,168 L230,169 L229,169 L230,170 L230,171 L231,172 L231,178 L230,179 L230,181 L229,182 L229,183 L228,183 L228,185 L227,185 L227,186 L226,186 L226,187 L225,187 L225,188 L224,188 L224,190 L223,190 L223,191 L222,191 L222,192 L220,192 L220,193 L219,193 L219,194 L218,194 L218,195 L214,195 L209,190 L207,190 L207,191 L205,191 L205,193 L204,193 L204,199 L203,199 L203,201 L202,201 L201,200 L200,200 L198,198 L198,197 L197,196 L197,195 L196,194 L196,192 L195,191 L195,183 L196,182 L196,180 L197,179 L197,178 L205,170 L206,170 L208,168 L209,168 L210,167 L212,167 L213,166 L216,166" fill="none" stroke="black" stroke-width="1"/>
<path d="M210,168" fill="none" stroke="black" stroke-width="1"/>
<path d="M208,169 L207,170" fill="none" stroke="black" stroke-width="1"/>
<path d="M205,171 L198,178" fill="none" stroke="black" stroke-width="1"/>
<path d="M285,173" fill="none" stroke="black" stroke-width="1"/>
<path d="M286,175" fill="none" stroke="black" stroke-width="1"/>
<path d="M287,177 L288,178" fill="none" stroke="black" stroke-width="1"/>
<path d="M197,180" fill="none" stroke="black" stroke-width="1"/>
<path d="M289,180 L291,182" fill="none" stroke="black" stroke-width="1"/>
<path d="M292,184 L296,188 L296,189 L298,191" fill="none" stroke="black" stroke-width="1"/>
<path d="M118,187 L122,187 L123,188 L122,188 L123,189 L124,189 L124,190 L125,191 L124,191 L126,193 L125,193 L127,195 L126,195 L127,196 L128,196 L128,197 L129,198 L128,198 L130,200 L129,200 L130,201 L131,201 L131,202 L132,203 L131,203 L132,204 L133,204 L134,205 L133,205 L135,207 L134,207 L135,208 L136,208 L137,209 L136,209 L137,210 L138,210 L138,211 L139,212 L138,212 L139,213 L140,213 L141,214 L140,214 L141,215 L142,215 L143,216 L142,216 L143,217 L144,217 L145,218 L144,218 L145,219 L146,219 L147,220 L146,220 L147,221 L148,221 L149,222 L148,222" fill="none" stroke="black" stroke-width="1"/>
<path d="M116,188 L117,188 L116,189 L114,189 L114,190 L112,190 L112,191 L111,191 L111,192 L109,192 L109,193 L108,193 L108,194 L106,194 L106,195 L105,195 L105,196 L103,196 L103,197 L102,197 L102,198 L101,198 L101,199 L100,199 L100,200 L99,200 L99,201 L98,201 L98,202 L97,202 L97,203 L96,203 L96,205 L95,205 L95,206 L94,206 L94,207 L93,207 L93,208 L92,208 L92,209 L91,209 L91,211 L90,211 L90,212 L89,212 L89,214 L88,214 L88,215 L87,215 L87,217 L86,218 L86,222 L87,223 L87,226 L88,227 L88,229 L89,230 L89,231 L90,232 L89,232 L91,234 L90,234 L91,235 L92,235 L92,236 L93,237 L92,237 L93,238 L94,238 L94,239 L95,240 L94,240 L95,241 L96,241 L97,242 L96,242 L97,243 L98,243 L99,244 L98,244 L99,245 L100,245 L101,246 L100,246 L101,247 L102,247 L103,248 L102,248 L103,249 L104,249 L104,250 L105,251 L104,251 L105,252 L106,252 L106,253 L107,254 L106,254 L107,255 L107,256 L108,257 L108,258 L109,259 L108,259 L110,261 L109,261 L111,263 L110,263 L111,264 L112,264 L112,265 L113,266 L112,266 L114,268 L113,268 L114,269 L115,269 L115,270 L116,271 L115,271 L116,272 L117,272 L118,273 L117,273 L118,274 L119,274 L119,275 L120,276 L119,276 L120,277 L121,277 L122,278 L121,278 L122,279 L123,279 L124,280 L123,280" fill="none" stroke="black" stroke-width="1"/>
<path d="M338,190 L345,190 L346,191 L348,191 L349,192 L348,192" fill="none" stroke="black" stroke-width="1"/>
<path d="M211,191 L214,194" fill="none" stroke="black" stroke-width="1"/>
<path d="M335,191 L337,191" fill="none" stroke="black" stroke-width="1"/>
<path d="M333,192 L335,192" fill="none" stroke="black" stroke-width="1"/>
<path d="M350,192 L351,193 L350,193" fill="none" stroke="black" stroke-width="1"/>
<path d="M299,193 L300,194" fill="none" stroke="black" stroke-width="1"/>
<path d="M332,193 L333,193 L332,194 L330,194 L330,195 L329,195 L329,197 L328,197 L328,199 L327,199 L327,200 L326,201 L326,211 L327,212 L327,213 L328,214 L327,214 L328,215 L329,215 L329,216 L330,217 L329,217 L330,218 L331,218 L332,219 L331,219" fill="none" stroke="black" stroke-width="1"/>
<path d="M352,193 L353,194 L352,194 L353,195 L354,195 L355,196 L354,196 L356,198 L355,198 L357,200 L356,200 L357,201 L357,212 L356,213 L356,214 L355,214 L355,216 L354,216 L354,217 L353,217 L353,218 L352,218 L352,219 L351,219 L351,220 L349,220 L349,221 L347,221 L346,222 L338,222 L337,221 L335,221 L334,220 L333,220 L333,219" fill="none" stroke="black" stroke-width="1"/>
<path d="M197,194" fill="none" stroke="black" stroke-width="1"/>
<path d="M198,196" fill="none" stroke="black" stroke-width="1"/>
<path d="M199,198 L200,199" fill="none" stroke="black" stroke-width="1"/>
<path d="M335,220" fill="none" stroke="black" stroke-width="1"/>
<path d="M150,222 L151,223 L150,223 L151,224 L152,224 L153,225 L152,225 L153,226 L155,226 L156,227 L155,227 L156,228 L158,228 L159,229 L158,229 L159,230 L161,230 L162,231 L161,231" fill="none" stroke="black" stroke-width="1"/>
<path d="M242,227 L245,227 L246,228 L245,228 L247,230 L246,230 L248,232 L247,232 L248,233 L249,233 L249,234 L250,235 L249,235 L250,236 L251,236 L252,237 L251,237 L252,238 L252,242 L251,242 L251,243 L250,243 L250,244 L249,244 L248,245 L246,245 L245,246 L244,246 L244,247 L242,247 L242,248 L241,248 L241,249 L240,249 L240,250 L239,250 L239,251 L238,251 L238,253 L237,253 L237,254 L235,254 L235,255 L234,255 L234,256 L229,256 L227,254 L227,250 L228,249 L228,247 L229,246 L229,245 L230,244 L230,243 L231,242 L231,241 L232,240 L232,238 L233,237 L233,235 L239,229 L240,229 L241,228 L242,228 L241,229" fill="none" stroke="black" stroke-width="1"/>
<path d="M239,230 L234,235" fill="none" stroke="black" stroke-width="1"/>
<path d="M163,231 L164,232 L163,232" fill="none" stroke="black" stroke-width="1"/>
<path d="M165,232 L166,232 L167,233 L166,233" fill="none" stroke="black" stroke-width="1"/>
<path d="M168,233 L169,234 L171,234 L172,235 L174,235 L175,236 L178,236 L179,237 L183,237 L184,238 L189,238 L190,239 L193,239 L194,240 L193,240 L194,241 L195,241 L195,244 L196,245 L196,247 L197,248 L197,250 L198,251 L198,252 L199,253 L198,253 L200,255 L199,255 L201,257 L200,257 L202,259 L201,259 L203,261 L202,261 L203,262 L204,262 L204,263 L205,264 L204,264 L205,265 L206,265 L206,266 L207,267 L206,267 L207,268 L208,268 L209,269 L208,269 L209,270 L210,270 L211,271 L210,271 L211,272 L213,272 L214,273 L213,273" fill="none" stroke="black" stroke-width="1"/>
<path d="M241,235 L244,235 L245,236 L244,236 L245,237 L245,239 L244,239 L244,240 L241,240 L240,239 L240,236 L241,236" fill="none" stroke="black" stroke-width="1"/>
<path d="M241,239" fill="none" stroke="black" stroke-width="1"/>
<path d="M232,241" fill="none" stroke="black" stroke-width="1"/>
<path d="M231,243" fill="none" stroke="black" stroke-width="1"/>
<path d="M230,245" fill="none" stroke="black" stroke-width="1"/>
<path d="M229,247" fill="none" stroke="black" stroke-width="1"/>
<path d="M268,253 L268,254 L267,254 L267,255 L266,256 L266,260 L265,261 L265,264 L264,265 L264,266 L263,266 L263,267 L262,267 L262,268 L260,268 L259,269 L258,268 L255,268 L255,269 L254,269 L254,271 L255,272 L255,276 L254,276 L254,277 L252,277 L251,278 L241,278 L240,277 L239,277 L238,276 L237,276 L235,274 L235,273 L232,270 L232,268 L231,267" fill="none" stroke="black" stroke-width="1"/>
<path d="M228,254 L229,255" fill="none" stroke="black" stroke-width="1"/>
<path d="M270,255 L272,255 L273,256 L275,256 L276,257 L275,257" fill="none" stroke="black" stroke-width="1"/>
<path d="M277,257 L278,257 L279,258 L278,258 L279,259 L281,259 L282,260 L281,260 L282,261 L283,261 L284,262 L283,262 L284,263 L285,263 L286,264 L285,264 L286,265 L287,265 L288,266 L287,266 L289,268 L288,268 L289,269 L289,270 L290,271 L290,272 L291,273 L291,285 L290,286 L290,289 L289,290 L289,292 L288,293 L288,295 L287,295 L287,297 L286,297 L286,299 L285,299 L285,301 L284,301 L284,302 L283,302 L283,303 L282,303 L282,304 L281,304 L281,306 L280,306 L280,307 L279,307 L279,308 L278,308 L278,309 L276,309 L276,310 L275,310 L275,311 L274,311 L274,312 L273,312 L273,313 L272,313 L272,314 L271,314 L271,315 L270,315 L270,316 L268,316 L268,317 L267,317 L267,318 L266,318 L266,319 L264,319 L264,320 L262,320 L262,321 L260,321 L260,322 L258,322 L257,323 L255,323 L254,324 L253,324 L252,325 L250,325 L250,326 L249,326 L249,327 L247,327 L246,326 L245,326 L244,327 L240,327 L239,328 L234,328 L234,329 L199,329 L198,328 L191,328 L190,327 L189,327 L188,326 L185,326 L184,325 L182,325 L181,324 L179,324 L178,323 L176,323 L175,322 L173,322 L172,321 L171,321 L170,320 L169,320 L166,317 L165,317 L164,316 L164,315 L162,313 L162,312 L161,311 L161,309 L160,308 L160,299 L156,295 L154,295 L153,294 L151,294 L150,293 L148,293 L147,292 L145,292 L144,291 L142,291 L141,290 L140,290 L139,289 L138,289 L136,287 L134,287 L132,285 L131,285 L130,284 L129,284 L127,282 L126,282 L125,281 L125,280 L126,281" fill="none" stroke="black" stroke-width="1"/>
<path d="M1,259 L3,259 L4,260 L3,260 L4,261 L5,261 L6,262 L5,262" fill="none" stroke="black" stroke-width="1"/>
<path d="M7,262 L8,263 L7,263 L8,264 L9,264 L10,265 L9,265 L10,266 L12,266 L13,267 L12,267 L13,268 L14,268 L15,269 L14,269 L15,270 L16,270 L17,271 L16,271 L17,272 L18,272 L19,273 L18,273 L20,275 L19,275 L20,276 L21,276 L22,277 L21,277 L22,278 L23,278 L24,279 L23,279 L24,280 L25,280 L25,281 L26,282 L25,282 L26,283 L27,283 L28,284 L27,284 L29,286 L28,286 L29,287 L30,287 L30,288 L31,289 L30,289 L31,290 L32,290 L32,291 L33,292 L32,292 L33,293 L34,293 L35,294 L34,294 L36,296 L35,296 L36,297 L37,297 L38,298 L37,298 L39,300 L38,300 L39,301 L40,301 L41,302 L40,302 L42,304 L41,304 L42,305 L43,305 L44,306 L43,306 L45,308 L44,308 L45,309 L46,309 L47,310 L46,310 L47,311 L48,311 L49,312 L48,312 L50,314 L49,314 L50,315 L51,315 L51,316 L52,317 L51,317 L53,319 L52,319 L53,320 L54,320 L54,322 L55,323 L54,323 L55,324 L55,325 L56,326 L56,328 L57,329 L57,332 L58,333 L57,333 L58,334 L58,336" fill="none" stroke="black" stroke-width="1"/>
<path d="M228,268 L229,269 L229,271 L230,272 L230,273 L232,275 L233,275 L232,276 L231,276 L231,277 L225,277 L224,276 L220,276 L219,275 L217,275 L216,274 L215,274 L215,273" fill="none" stroke="black" stroke-width="1"/>
<path d="M233,269 L233,270 L235,272" fill="none" stroke="black" stroke-width="1"/>
<path d="M236,274 L237,275" fill="none" stroke="black" stroke-width="1"/>
<path d="M239,276" fill="none" stroke="black" stroke-width="1"/>
<path d="M246,279" fill="none" stroke="black" stroke-width="1"/>
<path d="M128,282 L129,283" fill="none" stroke="black" stroke-width="1"/>
<path d="M131,284" fill="none" stroke="black" stroke-width="1"/>
<path d="M133,285 L134,286 L135,286" fill="none" stroke="black" stroke-width="1"/>
<path d="M137,287 L138,288" fill="none" stroke="black" stroke-width="1"/>
<path d="M140,289 L141,289 L142,290" fill="none" stroke="black" stroke-width="1"/>
<path d="M157,295 L159,297" fill="none" stroke="black" stroke-width="1"/>
<path d="M162,311" fill="none" stroke="black" stroke-width="1"/>
<path d="M163,313 L164,314" fill="none" stroke="black" stroke-width="1"/>
<path d="M165,316" fill="none" stroke="black" stroke-width="1"/>
<path d="M167,317 L169,319" fill="none" stroke="black" stroke-width="1"/>
<path d="M171,320" fill="none" stroke="black" stroke-width="1"/>
<path d="M173,321" fill="none" stroke="black" stroke-width="1"/>
<path d="M247,326" fill="none" stroke="black" stroke-width="1"/>
<path d="M191,327" fill="none" stroke="black" stroke-width="1"/>
<path d="M247,330 L247,333 L246,333 L246,335 L245,336" fill="none" stroke="black" stroke-width="1"/>
<path d="M192,331 L192,333 L191,334 L191,336" fill="none" stroke="black" stroke-width="1"/>
</svg>