<svg height="338" viewBox="0 0 382 338" width="382" xmlns="http://www.w3.org/2000/svg">
<rect fill="white" height="100%" width="100%"/>
<path d="M271,1 L270,5 L183,5 L181,7 L180,6 L180,8 L179,6 L180,9 L178,6 L180,10 L177,5 L179,11 L176,5 L179,12 L175,5 L178,13 L174,5 L177,14 L173,5 L176,15 L172,5 L175,16 L171,5 L174,17 L170,5 L173,18 L169,5 L173,19 L168,5 L172,20 L167,5 L171,21 L166,5 L170,22 L165,5 L169,23 L164,5 L170,24 L163,5 L171,25 L162,5 L172,25 L161,5 L173,24 L160,5 L174,24 L159,5 L175,24 L158,5 L176,24 L157,5 L177,24 L156,5 L178,23 L155,5 L179,23 L154,5 L180,23 L153,5 L181,23 L152,5 L182,23 L151,5 L183,23 L150,5 L184,23 L149,5 L185,23 L148,5 L186,23 L147,5 L187,23 L146,5 L188,22 L145,5 L189,22 L144,5 L190,22 L143,5 L191,22 L142,5 L192,22 L141,5 L193,22 L140,5 L194,22 L139,5 L195,22 L138,5 L196,22 L137,5 L197,22 L136,5 L198,22 L135,5 L199,22 L134,5 L200,22 L133,5 L201,22 L132,5 L202,22 L131,5 L203,22 L130,5 L204,22 L129,5 L205,22 L128,5 L206,22 L127,5 L207,22 L126,5 L208,22 L125,5 L209,22 L124,5 L210,22 L123,5 L211,22 L122,5 L212,22 L119,5 L215,23 L118,5 L216,23 L117,5 L217,23 L116,5 L218,23 L115,5 L219,23 L114,5 L220,24 L113,5 L221,24 L112,5 L222,24 L111,5 L223,24 L110,5 L224,24 L109,5 L225,25 L108,5 L226,25 L107,5 L227,25 L106,5 L228,25 L105,5 L229,25 L104,5 L230,26 L103,5 L231,26 L102,5 L232,26 L101,5 L233,26 L100,5 L234,27 L99,5 L235,27 L98,5 L236,28 L97,5 L237,28 L96,5 L238,28 L95,5 L239,29 L94,5 L240,29 L93,5 L241,30 L92,5 L242,31 L91,5 L243,32 L90,5 L243,33 L89,5 L243,34 L88,5 L243,35 L87,5 L242,36 L86,5 L241,37 L85,5 L241,38 L84,5 L240,39 L83,5 L240,40 L82,5 L239,41 L81,5 L238,42 L80,5 L237,43 L79,5 L236,44 L78,5 L235,45 L77,5 L234,46 L76,5 L234,47 L75,5 L233,48 L74,5 L232,49 L73,5 L231,50 L72,5 L230,51 L71,5 L229,52 L70,5 L228,53 L69,5 L227,54 L68,5 L226,55 L67,5 L225,56 L66,5 L224,57 L65,5 L223,58 L64,5 L222,59 L63,5 L220,60 L62,5 L219,61 L60,5 L217,62 L59,5 L216,63 L57,5 L214,64 L55,5 L212,65 L53,5 L210,66 L51,5 L208,67 L49,5 L206,68 L47,5 L204,69 L45,5 L202,70 L42,5 L199,71 L40,5 L197,72 L37,5 L194,73 L36,5 L193,73 L33,5 L190,74 L30,5 L187,75 L29,5 L186,76 L28,5 L186,77 L27,5 L187,78 L26,5 L188,79 L25,5 L189,79 L24,5 L190,80 L23,5 L191,81 L22,5 L192,81 L21,5 L193,82 L20,5 L194,83 L19,5 L195,84 L18,5 L196,85 L17,5 L197,86 L16,5 L198,87 L15,6 L198,88 L14,6 L199,89 L13,6 L200,90 L12,6 L200,91 L11,6 L201,92 L10,6 L201,93 L9,6 L202,94 L8,8 L203,95 L7,9 L203,96 L7,10 L204,97 L7,11 L204,98 L7,12 L204,99 L7,13 L205,100 L7,14 L206,101 L7,15 L206,102 L7,16 L206,103 L7,17 L206,104 L7,18 L207,105 L8,19 L207,106 L8,20 L207,107 L7,21 L208,108 L7,22 L207,109 L8,23 L207,110 L7,24 L205,110 L7,25 L204,110 L7,26 L203,110 L7,27 L202,110 L7,28 L201,111 L7,29 L200,111 L7,30 L199,111 L7,31 L198,111 L7,32 L197,111 L7,33 L196,111 L7,34 L195,111 L7,35 L194,111 L7,36 L193,111 L7,37 L192,111 L7,38 L191,111 L7,39 L190,111 L7,40 L189,111 L7,41 L188,112 L7,42 L187,112 L7,43 L186,111 L7,44 L185,111 L7,45 L184,111 L7,46 L183,111 L7,47 L182,111 L7,48 L181,111 L7,49 L180,111 L7,50 L179,111 L7,51 L178,111 L7,52 L177,111 L7,53 L176,111 L7,54 L175,111 L7,55 L174,110 L7,56 L173,110 L7,57 L172,110 L7,58 L171,110 L7,59 L170,109 L7,60 L169,109 L7,61 L168,109 L7,62 L167,108 L7,63 L166,108 L7,64 L165,108 L7,65 L164,108 L7,66 L163,107 L7,67 L162,107 L8,68 L161,107 L8,69 L160,106 L8,70 L159,106 L9,71 L158,105 L158,107 L10,72 L158,108 L12,72 L157,110 L156,108 L14,74 L157,111 L156,107 L15,75 L158,113 L17,75 L158,114 L18,76 L158,115 L19,76 L158,116 L20,77 L158,117 L21,77 L158,118 L22,78 L158,119 L23,78 L158,120 L24,79 L158,121 L25,79 L158,123 L27,80 L157,124 L28,81 L157,125 L29,81 L157,127 L31,82 L156,128 L32,82 L156,129 L33,83 L156,131 L35,83 L155,132 L36,84 L155,134 L38,84 L154,135 L39,85 L154,137 L41,86 L153,138 L41,89 L153,140 L40,90 L152,141 L39,91 L152,142 L39,92 L151,143 L38,93 L151,144 L37,94 L150,145 L36,95 L150,146 L35,96 L149,148 L34,98 L148,149 L34,99 L147,150 L33,100 L147,151 L32,101 L147,152 L32,102 L146,153 L31,103 L145,154 L31,104 L143,155 L30,105 L142,154 L30,106 L141,154 L29,107 L140,153 L29,108 L139,152 L29,109 L138,151 L28,110 L137,151 L28,111 L137,149 L28,112 L136,148 L27,113 L135,147 L27,114 L134,146 L26,115 L133,145 L26,116 L132,144 L26,117 L131,143 L25,118 L130,142 L25,119 L129,141 L24,120 L129,140 L24,121 L128,139 L24,122 L127,138 L23,123 L126,137 L23,124 L125,136 L23,125 L125,135 L23,126 L124,134 L22,127 L123,133 L22,128 L123,132 L22,129 L122,131 L22,130 L121,130 L22,131 L120,129 L21,132 L120,128 L21,133 L119,127 L21,134 L119,126 L21,135 L118,125 L21,136 L117,124 L21,137 L117,123 L21,138 L116,122 L20,139 L116,121 L20,140 L115,120 L20,141 L115,119 L20,142 L114,118 L20,143 L114,117 L20,144 L113,116 L20,145 L113,115 L20,146 L113,114 L20,147 L112,113 L20,148 L112,112 L20,149 L20,155 L18,160 L19,161" fill="none" stroke="rgb(103, 98, 93)" stroke-width="1"/>
<path d="M56,7 L57,7" fill="none" stroke="rgb(134, 151, 102)" stroke-width="1"/>
<path d="M272,8 L275,11 L279,21 L290,32" fill="none" stroke="rgb(18, 46, 78)" stroke-width="1"/>
<path d="M56,9 L57,18 L55,20 L36,20 L25,22 L11,27" fill="none" stroke="rgb(18, 46, 78)" stroke-width="1"/>
<path d="M290,35 L289,36 L292,36 L288,37 L293,36 L287,38 L294,37 L286,39 L295,38 L285,40 L296,39 L284,41 L297,40 L283,42 L297,41 L282,43 L298,42 L281,44 L299,43 L280,45 L300,44 L279,46 L301,45 L278,47 L302,46 L277,48 L302,47 L276,49 L303,48 L275,50 L304,49 L274,51 L305,50 L273,52 L306,51 L272,52 L307,52 L271,53 L308,53 L270,54 L309,54 L269,55 L310,55 L268,55 L311,56 L267,56 L312,57 L266,57 L313,58 L265,58 L314,59 L264,59 L315,59 L263,59 L316,60 L262,60 L317,61 L261,61 L318,62 L260,62 L319,62 L259,62 L320,63 L258,63 L321,64 L257,64 L322,64 L256,64 L323,65 L255,65 L324,66 L254,66 L325,66 L253,66 L326,67 L252,67 L327,68 L251,68 L328,68 L250,68 L329,69 L249,69 L330,69 L248,69 L331,70 L247,70 L332,70 L246,70 L333,71 L245,71 L334,72 L244,71 L335,72 L243,72 L336,72 L242,72 L337,73 L241,73 L338,74 L240,73 L339,74 L239,74 L340,75 L238,74 L341,75 L237,75 L342,75 L236,75 L343,76 L235,76 L344,76 L234,76 L345,76 L233,77 L346,77 L232,77 L347,77 L231,77 L348,77 L230,78 L349,78 L229,79 L351,78 L357,81 L380,86" fill="none" stroke="rgb(134, 151, 102)" stroke-width="1"/>
<path d="M10,48 L14,51 L17,51 L19,53 L40,61 L67,68 L67,71 L60,79 L61,80 L59,81 L52,95 L49,106 L52,108 L72,100 L77,95 L78,98 L79,96 L76,102 L74,114 L74,126 L78,142 L81,143 L83,140 L94,134 L99,129 L99,127 L104,123 L108,114 L110,113 L109,112" fill="none" stroke="rgb(18, 46, 78)" stroke-width="1"/>
<path d="M293,73 L299,73 L287,75 L301,73 L285,75 L302,74 L284,75 L303,74 L283,76 L304,74 L282,76 L305,74 L281,77 L306,74 L280,77 L307,74 L279,78 L308,74 L278,79 L309,74 L277,79 L310,74 L276,80 L311,75 L275,81 L312,75 L274,82 L313,75 L273,83 L314,75 L272,84 L315,76 L271,85 L316,76 L270,86 L317,76 L269,87 L318,76 L268,88 L319,77 L267,89 L320,77 L266,90 L321,77 L265,91 L322,78 L264,92 L323,78 L264,93 L324,78 L263,94 L325,78 L263,95 L326,79 L262,96 L327,79 L261,97 L328,80 L260,98 L329,80 L259,98 L330,80 L258,98 L331,81 L257,98 L332,81 L256,98 L333,81 L255,98 L334,82 L254,97 L254,99 L335,82 L253,96 L336,82 L252,96 L337,83 L251,94 L338,83 L250,93 L339,84 L249,92 L340,85 L248,91 L341,85 L247,90 L342,85 L246,90 L343,87 L245,90 L344,88 L244,89 L344,89 L243,88 L343,90 L242,87 L342,91 L241,86 L340,92 L240,85 L339,93 L239,85 L338,94 L238,85 L337,95 L237,84 L336,96 L236,83 L335,97 L235,83 L334,98 L234,82 L333,99 L233,82 L332,100 L231,82 L330,100 L230,81 L329,102 L229,81 L328,102 L325,105 L318,107 L318,111 L321,111 L326,115 L330,116 L339,124 L339,126 L343,130 L344,134 L346,135 L350,143 L350,148 L352,149 L349,148 L352,150 L348,151 L343,145 L337,143 L310,141 L308,143 L310,151 L310,169 L304,187 L303,196" fill="none" stroke="rgb(236, 229, 215)" stroke-width="1"/>
<path d="M251,99 L240,104 L235,109 L235,111 L231,114 L232,115 L228,119 L228,122 L223,132 L226,135 L255,129 L258,131 L255,149 L247,151 L242,161" fill="none" stroke="rgb(18, 46, 78)" stroke-width="1"/>
<path d="M53,134 L54,135 L51,137 L50,141 L46,145 L44,145 L41,149 L39,149 L37,152 L35,152 L34,154 L32,154 L20,163" fill="none" stroke="rgb(18, 46, 78)" stroke-width="1"/>
<path d="M187,134 L189,134 L187,136 L190,134 L187,137 L191,134 L188,138 L192,135 L188,139 L193,136 L188,140 L194,137 L188,141 L195,137 L188,142 L196,138 L189,143 L197,138 L189,144 L198,138 L189,145 L199,139 L189,146 L200,139 L189,147 L201,140 L190,148 L202,140 L190,149 L203,141 L190,150 L204,141 L190,151 L205,142 L190,152 L206,142 L190,153 L207,142 L209,144 L219,146 L220,148 L217,154" fill="none" stroke="rgb(18, 46, 78)" stroke-width="1"/>
<path d="M56,135 L54,146 L56,183 L61,199 L66,207 L68,218 L71,221 L74,218 L78,205 L81,199 L83,198 L82,197 L87,191 L86,190 L88,189 L95,175 L95,172 L100,162 L102,149 L105,149 L107,158 L110,161 L111,165 L114,167 L114,169 L123,178 L127,180 L132,179 L137,175 L149,169 L150,170 L156,166 L174,160 L187,158 L191,155 L192,157 L225,158 L242,163" fill="none" stroke="rgb(18, 46, 78)" stroke-width="1"/>
<path d="M278,154 L279,155 L277,156 L280,155 L277,157 L281,156 L276,158 L282,156 L276,159 L281,158 L275,160 L281,159 L275,161 L281,160 L274,162 L281,161 L274,163 L281,162 L274,164 L281,163 L274,165 L281,164 L274,166 L281,165 L274,167 L282,166 L274,168 L282,167 L275,169 L283,168 L275,170 L284,170 L276,172 L284,171 L276,173 L284,172 L277,174 L285,173 L277,175 L286,175 L278,178 L287,177 L278,179 L288,179 L279,181 L289,180 L279,182 L291,182 L280,184 L292,183 L280,185 L293,185 L281,187 L294,186 L281,188 L295,187 L281,189 L296,189 L282,191 L297,190 L282,192 L298,191 L283,194 L299,193 L283,196 L300,195 L283,197 L301,195 L283,198 L301,197 L284,199 L286,226 L284,242 L280,256" fill="none" stroke="rgb(134, 151, 102)" stroke-width="1"/>
<path d="M217,165 L222,165 L212,167 L223,165 L211,168 L224,166 L210,168 L225,166 L209,169 L226,166 L208,169 L227,167 L207,170 L228,168 L206,171 L229,169 L205,171 L230,170 L204,172 L230,171 L203,173 L231,172 L202,174 L231,173 L201,175 L231,174 L200,176 L231,175 L199,177 L231,176 L198,178 L231,177 L197,179 L231,178 L196,180 L230,179 L196,181 L230,180 L196,182 L230,181 L195,183 L229,182 L195,184 L229,183 L195,185 L229,184 L195,186 L228,185 L195,187 L227,186 L195,188 L226,187 L195,189 L225,188 L195,190 L225,189 L195,191 L224,190 L196,192 L223,191 L196,193 L222,192 L196,194 L221,193 L197,195 L219,193 L197,196 L218,194 L198,197 L217,195 L198,198 L216,195 L199,199 L215,195 L201,200 L214,194 L202,201 L213,193 L203,201 L212,193 L204,200 L211,192 L204,198 L210,191 L204,197 L209,191 L204,196 L208,190 L204,195 L207,191 L204,194 L205,192" fill="none" stroke="rgb(236, 229, 215)" stroke-width="1"/>
<path d="M243,165 L249,170 L255,182 L257,183 L257,186 L268,208 L271,219 L265,264 L260,269 L254,269 L254,277 L241,278 L237,276 L235,272 L233,270 L232,271 L232,269 L230,273 L229,270 L233,275 L231,277 L220,276 L211,272 L202,261 L198,253 L195,241 L193,239 L171,235 L153,226 L134,207 L134,205 L131,203 L122,187 L118,187 L110,191 L93,206 L93,208 L90,210 L86,217 L88,230 L91,236 L94,238 L94,240 L106,252 L111,265 L124,281 L125,280 L127,283 L142,291 L157,295 L160,299 L161,311 L165,317 L167,317 L169,320 L173,322 L191,327 L193,329 L196,328 L207,330 L227,330 L241,327 L248,328 L250,325 L266,319 L274,311 L276,311 L283,304 L283,302 L288,296 L291,286 L291,273 L287,264 L284,261 L282,261 L279,258 L270,256" fill="none" stroke="rgb(134, 151, 102)" stroke-width="1"/>
<path d="M336,189 L339,189 L333,191 L340,189 L332,192 L341,189 L331,193 L343,189 L329,194 L344,189 L328,195 L345,189 L328,196 L346,189 L326,197 L347,190 L326,198 L348,190 L325,199 L349,190 L325,200 L350,191 L325,201 L351,191 L325,202 L352,192 L324,203 L353,193 L324,204 L354,194 L324,205 L355,195 L324,206 L356,196 L324,207 L357,197 L324,208 L357,198 L324,209 L358,199 L325,210 L358,200 L325,211 L358,201 L325,212 L359,202 L326,213 L359,203 L326,214 L359,204 L326,215 L359,205 L327,216 L359,206 L328,217 L359,207 L329,218 L359,208 L329,219 L359,209 L331,220 L359,210 L332,221 L358,211 L334,221 L358,212 L335,222 L358,213 L336,222 L357,214 L337,223 L357,215 L338,223 L356,216 L339,223 L355,217 L340,223 L355,218 L341,223 L354,219 L342,223 L353,220 L343,223 L351,220 L344,223 L350,221 L345,223 L349,221 L347,223" fill="none" stroke="rgb(134, 151, 102)" stroke-width="1"/>
<path d="M242,227 L244,227 L240,229 L245,228 L239,230 L246,229 L238,231 L247,230 L237,232 L247,231 L236,233 L248,232 L235,234 L249,233 L234,235 L249,234 L233,236 L250,235 L233,237 L251,236 L233,238 L252,237 L232,239 L252,238 L232,240 L252,239 L231,241 L252,240 L231,242 L252,241 L230,243 L252,242 L230,244 L251,243 L229,245 L250,244 L229,246 L248,245 L228,247 L247,245 L228,248 L246,245 L228,249 L245,246 L227,250 L244,246 L227,251 L243,247 L227,252 L242,247 L227,253 L241,248 L227,254 L240,249 L228,255 L239,250 L228,256 L238,251 L230,256 L238,253 L232,256 L235,254 L234,256" fill="none" stroke="rgb(236, 229, 215)" stroke-width="1"/>
<path d="M241,235 L243,235 L240,237 L244,236 L240,238 L245,236 L240,239 L245,238 L241,240 L244,240" fill="none" stroke="rgb(18, 46, 78)" stroke-width="1"/>
<path d="M1,257 L8,261 L20,272 L20,274 L25,278 L30,287 L36,293 L35,294 L38,296 L40,301 L49,310 L58,327 L59,336" fill="none" stroke="rgb(134, 151, 102)" stroke-width="1"/>
<path d="M247,330 L245,336" fill="none" stroke="rgb(134, 151, 102)" stroke-width="1"/>
<path d="M192,331 L192,336" fill="none" stroke="rgb(134, 151, 102)" stroke-width="1"/>
</svg>