<svg height="338" viewBox="0 0 382 338" width="382" xmlns="http://www.w3.org/2000/svg">
<rect fill="white" height="100%" width="100%"/>
<path d="M273,1 L273,5 L270,6 L181,6 L181,8 L180,6 L180,9 L179,6 L180,10 L178,5 L179,11 L177,5 L179,12 L176,5 L178,13 L175,5 L177,14 L174,5 L176,15 L173,5 L176,16 L172,5 L175,17 L171,5 L174,18 L170,5 L173,19 L169,5 L172,20 L168,5 L171,21 L167,5 L170,22 L166,5 L169,23 L165,5 L170,24 L164,5 L171,25 L163,5 L172,25 L162,5 L173,25 L161,5 L174,24 L160,5 L175,24 L159,5 L176,24 L158,5 L177,24 L157,5 L178,24 L156,5 L179,23 L155,5 L180,23 L154,5 L181,23 L153,5 L182,23 L152,5 L183,23 L151,5 L184,23 L150,5 L185,23 L149,5 L186,23 L148,5 L187,23 L147,5 L188,22 L146,5 L189,22 L145,5 L190,22 L144,5 L191,22 L143,5 L192,22 L142,5 L193,22 L141,5 L194,22 L140,5 L195,22 L139,5 L196,22 L138,5 L197,22 L137,5 L198,22 L136,5 L199,22 L135,5 L200,22 L134,5 L201,22 L133,5 L202,22 L132,5 L203,22 L131,5 L204,22 L130,5 L205,22 L129,5 L206,22 L128,5 L207,22 L125,5 L210,23 L124,5 L211,23 L123,5 L212,23 L122,5 L213,23 L121,5 L214,23 L120,5 L215,23 L119,5 L216,23 L118,5 L217,23 L117,5 L218,23 L116,5 L219,24 L115,5 L220,24 L114,5 L221,24 L113,5 L222,24 L112,5 L223,24 L111,5 L224,25 L110,5 L225,25 L109,5 L226,25 L108,5 L227,25 L107,5 L228,25 L106,5 L229,26 L105,5 L230,26 L104,5 L231,26 L103,5 L232,26 L102,5 L233,27 L101,5 L234,27 L100,5 L235,27 L99,5 L236,28 L98,5 L237,28 L97,5 L238,28 L96,5 L239,29 L95,5 L240,29 L94,5 L241,30 L93,5 L242,31 L92,5 L243,32 L91,5 L243,33 L90,5 L243,34 L89,5 L243,35 L88,5 L242,36 L87,5 L242,37 L86,5 L241,38 L85,5 L241,39 L84,5 L240,40 L83,5 L239,41 L82,5 L238,42 L81,5 L238,43 L80,5 L237,44 L79,5 L236,45 L78,5 L235,46 L77,5 L234,47 L76,5 L233,48 L75,5 L232,49 L74,5 L232,50 L73,5 L231,51 L72,5 L230,52 L71,5 L229,53 L70,5 L228,54 L69,5 L226,55 L68,5 L226,56 L67,5 L225,57 L66,5 L224,58 L65,5 L222,59 L64,5 L221,60 L63,5 L220,61 L61,5 L218,62 L60,5 L217,63 L59,5 L216,63 L58,6 L215,64 L56,6 L213,65 L54,6 L211,66 L52,6 L209,67 L50,6 L207,68 L48,6 L205,69 L45,5 L202,70 L42,5 L199,71 L40,5 L197,72 L38,5 L195,73 L36,5 L193,73 L35,6 L192,74 L34,6 L191,74 L31,6 L188,75 L30,6 L187,76 L29,6 L187,77 L28,6 L188,78 L27,6 L189,79 L26,6 L190,80 L25,6 L191,81 L24,6 L192,82 L23,6 L193,83 L22,6 L194,84 L21,6 L195,85 L20,6 L196,86 L19,6 L197,87 L18,6 L198,88 L17,6 L199,89 L16,6 L200,90 L15,6 L200,91 L14,6 L201,92 L13,6 L202,93 L12,6 L202,94 L11,6 L203,95 L10,6 L203,96 L9,7 L204,97 L8,7 L204,98 L8,9 L205,99 L7,10 L205,100 L7,11 L206,102 L7,13 L207,104 L7,15 L207,105 L7,16 L208,107 L7,18 L208,108 L7,19 L207,109 L7,20 L207,110 L8,21 L205,111 L8,22 L204,111 L8,23 L203,111 L8,24 L202,111 L8,25 L201,111 L8,26 L200,111 L8,27 L199,111 L8,28 L198,111 L8,29 L197,111 L7,30 L196,111 L7,31 L195,111 L7,32 L194,111 L7,33 L193,111 L7,34 L192,112 L7,35 L191,112 L7,36 L190,112 L7,37 L189,112 L7,38 L188,112 L7,39 L187,112 L7,40 L186,112 L7,41 L185,112 L7,42 L184,112 L7,43 L183,111 L7,44 L182,111 L7,45 L181,111 L7,46 L180,111 L7,47 L179,111 L7,48 L178,111 L7,49 L177,111 L7,50 L176,111 L7,51 L175,111 L7,52 L174,111 L7,53 L173,110 L7,54 L172,110 L7,55 L171,110 L7,56 L169,109 L7,58 L168,109 L7,59 L167,109 L7,60 L166,109 L7,61 L165,108 L7,62 L164,108 L7,63 L163,108 L7,64 L162,107 L7,65 L161,107 L7,66 L160,107 L7,67 L159,106 L8,68 L158,106 L8,69 L158,108 L8,70 L157,109 L9,71 L157,110 L10,72 L158,112 L13,73 L158,113 L14,74 L158,114 L15,74 L158,115 L16,75 L158,116 L17,75 L158,117 L18,76 L158,118 L19,76 L158,119 L20,77 L158,120 L21,77 L158,121 L22,78 L158,122 L23,78 L158,123 L24,79 L158,124 L25,79 L157,125 L26,80 L157,126 L27,80 L157,127 L28,81 L157,128 L29,81 L156,129 L30,82 L156,130 L31,82 L156,131 L32,82 L156,132 L33,83 L155,133 L34,83 L155,134 L35,83 L155,135 L36,84 L154,136 L37,84 L154,137 L38,84 L154,138 L39,85 L153,139 L40,85 L153,140 L41,86 L153,141 L41,88 L152,142 L41,89 L152,143 L40,90 L151,144 L40,91 L150,145 L39,92 L150,146 L38,93 L149,147 L37,94 L149,148 L36,95 L148,149 L36,96 L148,150 L35,97 L147,151 L34,98 L147,152 L34,99 L146,153 L33,100 L146,154 L33,101 L145,155 L32,102 L143,155 L31,103 L142,155 L31,104 L141,155 L30,105 L141,153 L30,106 L140,152 L29,107 L139,151 L138,152 L29,108 L137,150 L28,109 L136,150 L28,110 L136,148 L28,111 L135,147 L27,112 L134,146 L27,113 L133,145 L27,114 L132,144 L26,115 L131,143 L26,116 L130,142 L26,117 L129,141 L25,118 L128,139 L25,120 L127,138 L24,121 L126,137 L24,122 L125,135 L23,124 L124,134 L23,125 L123,133 L23,126 L122,132 L22,127 L122,131 L22,128 L121,130 L22,130 L119,128 L22,131 L119,127 L21,132 L118,126 L21,133 L117,125 L21,134 L117,124 L21,135 L116,123 L21,136 L116,122 L21,137 L115,121 L20,138 L115,120 L20,139 L114,119 L20,140 L114,118 L20,141 L113,117 L20,142 L113,116 L20,143 L113,115 L20,144 L113,114 L20,145 L112,113 L20,146 L110,113 L20,147 L109,113 L20,148 L108,114 L20,149 L108,116 L20,150 L107,117 L20,151 L107,118 L20,152 L107,119 L20,153 L106,120 L20,154 L105,122 L19,156 L104,123 L19,157 L103,124 L19,158 L102,126 L18,160 L101,127 L18,161 L100,128 L19,162 L99,129 L20,163 L98,130 L21,162 L97,131 L22,162 L96,132 L23,161 L95,133 L24,161 L94,134 L25,160 L93,135 L26,159 L92,136 L27,158 L90,137 L28,158 L89,138 L29,157 L88,138 L30,157 L87,139 L31,156 L86,139 L32,155 L85,140 L33,155 L84,140 L34,154 L83,141 L35,153 L82,142 L36,153 L81,143 L37,152 L80,142 L38,151 L79,142 L39,151 L78,142 L40,149 L77,141 L41,148 L77,139 L42,147 L77,138 L43,147 L76,137 L44,146 L76,136 L45,145 L76,135 L46,144 L76,134 L47,143 L76,133 L48,142 L75,132 L49,141 L75,131 L50,140 L75,130 L51,140 L75,129 L51,138 L75,128 L52,136 L75,126 L53,135 L74,124 L56,136 L74,123 L56,137 L74,122 L56,138 L74,121 L56,139 L74,120 L56,140 L74,119 L55,141 L74,118 L55,142 L74,117 L55,143 L74,116 L55,144 L74,115 L55,145 L74,114 L55,146 L74,112 L54,148 L75,111 L54,149 L75,110 L54,150 L75,109 L54,151 L75,108 L54,152 L75,107 L54,153 L76,106 L54,154 L76,105 L54,155 L76,104 L54,156 L76,103 L54,157 L77,102 L55,158 L77,101 L55,159 L78,100 L55,160 L78,99 L55,161 L79,98 L55,162 L79,97 L55,163 L56,182 L60,196 L66,207 L69,221 L73,220 L77,208 L84,194 L86,193 L89,185 L91,184 L90,183 L94,178 L100,163 L102,149" fill="none" stroke="black" stroke-width="1"/>
<path d="M57,8" fill="none" stroke="black" stroke-width="1"/>
<path d="M274,9 L280,20 L283,22 L282,23 L290,30" fill="none" stroke="black" stroke-width="1"/>
<path d="M56,10 L58,16 L56,20 L38,20 L22,23 L11,27" fill="none" stroke="black" stroke-width="1"/>
<path d="M292,34 L291,35 L294,35 L290,36 L295,36 L289,37 L296,37 L288,38 L297,38 L287,39 L298,39 L286,40 L298,40 L285,41 L299,41 L284,42 L300,42 L283,43 L301,43 L282,44 L301,44 L281,45 L302,45 L280,46 L303,46 L279,47 L304,47 L278,48 L305,48 L277,48 L306,49 L276,49 L307,50 L275,50 L308,51 L274,51 L309,52 L273,52 L310,53 L272,53 L311,54 L271,54 L312,55 L270,54 L313,56 L269,55 L314,57 L268,56 L315,58 L267,57 L316,59 L266,57 L317,59 L265,58 L318,60 L264,59 L319,61 L263,60 L320,62 L262,60 L321,62 L261,61 L322,63 L260,62 L323,64 L259,63 L324,64 L258,63 L325,65 L257,64 L326,65 L256,65 L327,66 L255,65 L328,67 L254,66 L329,67 L253,67 L330,68 L252,67 L331,69 L251,68 L332,69 L250,68 L333,69 L249,69 L334,70 L248,70 L335,71 L247,70 L336,71 L246,71 L337,72 L245,71 L338,72 L244,72 L339,73 L243,72 L340,73 L242,73 L341,73 L241,73 L342,74 L240,74 L343,74 L239,74 L344,74 L238,75 L345,75 L237,75 L346,75 L236,76 L347,76 L235,76 L348,76 L234,77 L349,76 L233,77 L350,77 L232,77 L351,77 L231,78 L352,78 L230,78 L353,78 L229,79 L354,78 L371,83 L380,84" fill="none" stroke="black" stroke-width="1"/>
<path d="M10,49 L13,49 L14,51 L17,51 L21,54 L43,62 L66,67 L66,73 L59,81 L55,89 L56,90 L52,96 L49,105 L51,108 L70,101 L76,95 L78,95" fill="none" stroke="black" stroke-width="1"/>
<path d="M289,74 L294,74 L284,76 L296,74 L282,77 L298,74 L280,78 L300,74 L278,79 L302,74 L276,80 L303,74 L275,81 L304,74 L274,82 L305,74 L273,83 L306,74 L272,84 L307,74 L271,85 L308,74 L270,86 L309,75 L269,87 L310,75 L268,88 L311,75 L267,89 L312,75 L266,90 L313,75 L265,91 L314,75 L265,92 L315,76 L264,93 L316,76 L264,94 L317,76 L263,95 L318,76 L262,96 L319,77 L262,97 L320,77 L261,98 L321,77 L260,99 L322,78 L259,99 L323,78 L258,99 L324,78 L257,99 L325,79 L256,98 L326,79 L255,97 L327,79 L254,97 L254,99 L328,80 L253,96 L329,80 L252,95 L330,80 L251,94 L331,81 L250,93 L332,81 L249,92 L333,82 L248,91 L334,82 L247,90 L335,82 L246,90 L336,83 L245,89 L337,83 L244,88 L338,83 L243,88 L339,84 L242,87 L340,85 L241,86 L341,85 L239,85 L343,86 L238,85 L343,88 L237,84 L343,89 L236,83 L342,90 L235,83 L341,91 L234,82 L340,92 L233,82 L339,93 L232,82 L338,94 L231,81 L337,95 L230,81 L336,96 L229,81 L335,96 L331,101 L330,100 L325,105 L319,107 L318,110 L330,116 L339,124 L339,126 L343,130 L344,134 L346,135 L350,143 L350,149 L352,149 L349,150 L352,150 L348,149 L348,151 L350,151 L347,149 L349,152 L344,146 L336,143 L321,143 L310,141 L310,170 L305,184 L303,196 L300,196 L298,191 L295,189 L296,188 L291,184 L291,182 L286,177 L281,164 L282,156 L279,154 L279,156 L277,156 L274,163 L274,167 L281,185 L286,211 L286,229 L280,255" fill="none" stroke="black" stroke-width="1"/>
<path d="M76,99" fill="none" stroke="black" stroke-width="1"/>
<path d="M252,99 L241,104 L232,113 L223,132 L224,135 L227,135 L256,129 L258,130 L255,149 L250,151 L247,150 L242,161" fill="none" stroke="black" stroke-width="1"/>
<path d="M189,134 L188,135 L190,135 L187,136 L191,135 L187,137 L192,136 L188,138 L193,137 L188,139 L194,137 L188,140 L195,137 L188,141 L196,138 L189,142 L197,138 L189,143 L198,138 L189,144 L199,139 L189,145 L200,140 L190,146 L201,140 L190,147 L202,140 L190,148 L203,141 L190,149 L204,141 L190,150 L205,142 L190,151 L206,142 L190,152 L207,142 L190,153 L208,143 L216,145 L218,147" fill="none" stroke="black" stroke-width="1"/>
<path d="M235,140 L233,141 L238,141 L232,141 L239,141 L231,141 L240,141 L230,142 L241,142 L229,142 L242,143 L228,142 L243,144 L227,143 L244,145 L226,143 L245,146 L225,144 L245,147 L224,144 L222,145" fill="none" stroke="black" stroke-width="1"/>
<path d="M220,146 L220,149 L216,152 L216,154" fill="none" stroke="black" stroke-width="1"/>
<path d="M104,149 L107,158 L110,161 L113,168 L123,178 L127,180 L131,180 L139,174 L162,164 L191,156 L219,157 L234,160 L241,163 L245,168 L246,167 L246,169 L251,173 L252,177 L254,178 L270,215 L270,228 L267,251" fill="none" stroke="black" stroke-width="1"/>
<path d="M217,165 L222,165 L212,167 L223,165 L211,167 L224,166 L210,168 L225,166 L209,168 L226,166 L208,169 L227,167 L207,170 L228,168 L206,170 L229,169 L205,171 L230,170 L204,172 L230,171 L203,173 L231,172 L202,174 L231,173 L201,175 L231,174 L200,176 L231,175 L199,177 L231,176 L198,178 L231,177 L197,179 L231,178 L196,180 L230,179 L196,181 L230,180 L196,182 L230,181 L195,183 L229,182 L195,184 L229,183 L195,185 L228,184 L195,186 L228,185 L195,187 L227,186 L195,188 L226,187 L195,189 L225,188 L195,190 L224,189 L195,191 L224,190 L196,192 L223,191 L196,193 L222,192 L196,194 L220,192 L197,195 L219,193 L197,196 L218,194 L198,197 L217,195 L198,198 L216,195 L199,199 L215,195 L201,200 L214,194 L202,201 L213,193 L203,201 L212,193 L203,199 L211,192 L204,198 L210,191 L204,197 L209,190 L204,196 L208,190 L204,195 L207,191 L204,194 L205,192" fill="none" stroke="black" stroke-width="1"/>
<path d="M118,187 L120,187 L116,189 L121,187 L115,189 L122,188 L114,190 L123,189 L113,190 L124,190 L112,191 L125,191 L111,192 L125,192 L110,192 L126,193 L109,193 L126,194 L108,194 L127,195 L107,194 L128,196 L106,195 L128,197 L105,196 L129,198 L104,196 L129,199 L103,197 L130,200 L102,198 L131,201 L101,199 L131,202 L100,200 L132,203 L99,201 L133,204 L98,202 L134,205 L97,203 L134,206 L96,204 L135,207 L95,205 L136,208 L94,206 L137,209 L93,207 L138,210 L92,208 L138,211 L91,209 L139,212 L91,210 L140,213 L90,211 L141,214 L89,212 L142,215 L89,213 L143,216 L88,214 L144,217 L87,215 L145,218 L87,216 L146,219 L87,217 L147,220 L86,218 L148,221 L86,219 L149,222 L86,220 L150,223 L86,221 L151,224 L86,222 L152,224 L87,223 L153,226 L87,224 L154,226 L87,225 L155,227 L87,226 L157,228 L88,228 L158,229 L88,229 L160,230 L89,231 L161,231 L89,232 L163,232 L90,234 L164,232 L91,235 L165,232 L92,236 L166,233 L92,237 L167,233 L93,238 L168,233 L94,239 L169,234 L94,240 L170,234 L95,241 L171,234 L96,242 L172,235 L97,243 L173,235 L98,244 L174,235 L99,245 L175,236 L100,246 L176,236 L101,247 L177,236 L102,248 L178,236 L103,249 L179,237 L104,250 L180,237 L104,251 L181,237 L105,252 L182,237 L106,253 L183,237 L106,254 L184,238 L107,255 L185,238 L107,256 L186,238 L108,257 L187,238 L108,258 L188,238 L108,259 L189,238 L109,260 L190,239 L109,261 L191,239 L110,262 L192,239 L110,263 L193,240 L111,264 L194,241 L112,265 L195,242 L112,266 L195,243 L113,267 L195,244 L113,268 L196,245 L114,269 L196,246 L115,270 L196,247 L115,271 L197,248 L116,272 L197,249 L117,273 L197,250 L118,274 L198,251 L119,276 L199,253 L120,277 L199,254 L121,278 L200,255 L122,279 L200,256 L123,280 L201,257 L125,280 L201,258 L126,281 L202,259 L127,282 L202,260 L128,282 L203,261 L129,283 L204,262 L130,284 L204,263 L131,284 L205,264 L132,285 L206,265 L133,285 L206,266 L134,287 L206,267 L135,287 L207,268 L136,287 L209,269 L137,288 L210,270 L138,289 L210,271 L139,289 L212,272 L140,290 L213,272 L141,290 L214,273 L142,291 L215,273 L143,291 L216,274 L144,291 L217,275 L145,292 L218,275 L146,292 L219,275 L147,292 L220,276 L148,293 L223,276 L151,294 L224,276 L152,294 L226,277 L154,295 L229,277 L157,296 L230,277 L158,297 L231,276 L159,298 L232,275 L160,299 L233,275 L231,274 L160,300 L230,273 L160,302 L229,271 L160,303 L229,270 L160,304 L229,269 L160,305 L228,268 L160,306 L164,316 L173,322 L191,328 L199,329 L234,329 L245,326 L249,327 L250,325 L266,319 L285,301 L291,285 L291,273 L288,266 L278,257 L270,255" fill="none" stroke="black" stroke-width="1"/>
<path d="M338,190 L341,190 L335,192 L343,190 L333,193 L344,190 L332,194 L345,190 L331,194 L346,191 L330,195 L347,191 L329,196 L348,192 L328,197 L349,192 L328,198 L350,193 L327,199 L351,193 L327,200 L352,194 L326,201 L353,195 L326,202 L354,196 L326,203 L355,197 L326,204 L356,198 L326,205 L356,199 L326,206 L357,200 L326,207 L357,201 L326,208 L357,202 L326,209 L357,203 L326,210 L357,204 L326,211 L357,205 L327,212 L357,206 L327,213 L357,207 L327,214 L357,208 L328,215 L357,209 L329,216 L357,210 L329,217 L357,211 L330,218 L357,212 L331,219 L356,213 L333,219 L356,214 L334,220 L355,215 L335,220 L355,216 L336,221 L354,217 L337,221 L353,218 L338,222 L352,219 L339,222 L351,220 L340,222 L349,220 L341,222 L345,222" fill="none" stroke="black" stroke-width="1"/>
<path d="M242,227 L244,227 L240,229 L245,228 L239,230 L246,229 L238,231 L247,230 L237,232 L247,231 L236,233 L248,232 L235,234 L249,233 L234,235 L249,234 L233,236 L250,235 L233,237 L251,236 L232,238 L252,237 L232,239 L252,238 L232,240 L252,239 L231,241 L252,240 L231,242 L252,241 L230,243 L252,242 L230,244 L251,243 L229,245 L250,244 L229,246 L248,245 L228,247 L247,245 L228,248 L246,245 L228,249 L245,246 L227,250 L244,246 L227,251 L243,247 L227,252 L242,247 L227,253 L241,248 L227,254 L240,249 L228,255 L239,250 L229,256 L238,251 L231,256 L234,255" fill="none" stroke="black" stroke-width="1"/>
<path d="M241,235 L243,235 L240,237 L244,236 L240,238 L245,236 L240,239 L245,238 L241,240 L244,240" fill="none" stroke="black" stroke-width="1"/>
<path d="M268,253 L266,256 L264,266 L259,269 L254,269 L254,277 L246,279 L241,278 L235,274 L231,267" fill="none" stroke="black" stroke-width="1"/>
<path d="M1,259 L7,262 L19,273 L19,275 L25,280 L25,282 L28,284 L28,286 L35,294 L35,296 L38,298 L38,300 L41,302 L41,304 L44,306 L44,308 L49,312 L52,319 L54,320 L58,336" fill="none" stroke="black" stroke-width="1"/>
<path d="M247,330 L245,336" fill="none" stroke="black" stroke-width="1"/>
<path d="M192,331 L191,336" fill="none" stroke="black" stroke-width="1"/>
</svg>